<svg width="220" height="220" viewBox="0 0 220 220" fill="none" xmlns="http://www.w3.org/2000/svg">
<rect width="220" height="220" fill="white"/>
<path d="M47.1096 73.6629H40.6019C38.3992 73.6629 36.2228 74.1409 34.2228 75.064L33.894 75.2157C32.0933 76.0468 30.4963 77.2621 29.2152 78.7761C27.1392 81.2295 26.0001 84.3394 26.0001 87.5533V89.6123C26.0665 91.3751 26.2013 92.7772 26.3996 93.9289C27.164 98.3683 30.6185 102.049 34.7063 103.942C35.5748 104.344 36.3797 104.543 37.2585 104.624H45.2332H73.3792H84.1686C89.3501 104.624 93.5506 108.824 93.5506 114.006V121.042V138.399V158.57V182.494C93.5506 187.035 94.9574 191.669 98.4396 194.583C100.058 195.937 101.603 196.817 103.412 197.401C104.935 197.893 106.552 197.975 108.153 197.975H111.911C114.923 197.975 117.863 197.056 120.34 195.342L121.536 194.513C122.262 194.011 123.166 192.952 123.697 192.246C125.416 189.956 126.857 187.664 126.857 184.8V182.494V158.57V138.399V121.042V114.006C126.857 108.824 131.057 104.624 136.239 104.624H138.584H153.596H162.508H175.174H182.878C184.294 104.624 185.694 104.326 186.987 103.752C188.472 103.092 189.816 102.111 190.714 100.757C192.152 98.5876 192.654 96.8917 193 94.3033V88.4406C193 85.5107 192.38 82.4847 190.712 80.0759C188.49 76.867 184.838 75.1462 181.004 74.4159L179.274 74.0864C177.795 73.8047 176.293 73.6629 174.787 73.6629H164.385H151.25H138.584H126.018C121.707 73.6629 117.528 75.1546 114.191 77.8848L113.378 78.6235C110.945 80.8361 107.202 80.747 104.876 78.4212C104.52 78.065 104.121 77.7537 103.689 77.4945L102.175 76.5858C98.9872 74.6732 95.3397 73.6629 91.6224 73.6629H84.1686H70.5646H58.8371H47.1096Z" fill="#192432" stroke="white" stroke-width="0.938202"/>
<path d="M109.343 62.0917C106.64 62.0917 104.099 61.5783 101.721 60.5515C99.3425 59.5247 97.2739 58.1324 95.5148 56.3746C93.7556 54.6168 92.3633 52.5481 91.3378 50.1688C90.3123 47.7894 89.7989 45.2484 89.7976 42.5459C89.7963 39.8433 90.3097 37.3024 91.3378 34.923C92.3659 32.5436 93.7583 30.475 95.5148 28.7172C97.2713 26.9593 99.3399 25.567 101.721 24.5402C104.101 23.5134 106.642 23 109.343 23C112.045 23 114.586 23.5134 116.966 24.5402C119.347 25.567 121.416 26.9593 123.172 28.7172C124.929 30.475 126.322 32.5436 127.351 34.923C128.381 37.3024 128.893 39.8433 128.889 42.5459C128.885 45.2484 128.372 47.7894 127.349 50.1688C126.326 52.5481 124.934 54.6168 123.172 56.3746C121.41 58.1324 119.342 59.5254 116.966 60.5535C114.591 61.5816 112.05 62.0943 109.343 62.0917Z" fill="#192432"/>
<path d="M181.272 66.1573C179.65 66.1573 178.125 65.8492 176.698 65.2332C175.271 64.6171 174.03 63.7817 172.975 62.727C171.919 61.6723 171.084 60.4311 170.469 59.0035C169.853 57.5759 169.545 56.0513 169.544 54.4298C169.544 52.8082 169.852 51.2837 170.469 49.856C171.085 48.4284 171.921 47.1872 172.975 46.1325C174.029 45.0778 175.27 44.2425 176.698 43.6264C178.127 43.0103 179.651 42.7022 181.272 42.7022C182.893 42.7022 184.417 43.0103 185.846 43.6264C187.274 44.2425 188.515 45.0778 189.569 46.1325C190.623 47.1872 191.459 48.4284 192.077 49.856C192.694 51.2837 193.002 52.8082 192.999 54.4298C192.997 56.0513 192.689 57.5759 192.075 59.0035C191.462 60.4311 190.626 61.6723 189.569 62.727C188.512 63.7817 187.271 64.6175 185.846 65.2343C184.42 65.8512 182.896 66.1589 181.272 66.1573Z" fill="#192432"/>
<path d="M37.7275 66.1573C36.1052 66.1573 34.5806 65.8492 33.1538 65.2332C31.7269 64.6171 30.4858 63.7817 29.4303 62.727C28.3748 61.6723 27.5394 60.4311 26.9241 59.0035C26.3088 57.5759 26.0008 56.0513 26 54.4298C25.9992 52.8082 26.3073 51.2837 26.9241 49.856C27.541 48.4284 28.3764 47.1872 29.4303 46.1325C30.4842 45.0778 31.7254 44.2425 33.1538 43.6264C34.5822 43.0103 36.1068 42.7022 37.7275 42.7022C39.3483 42.7022 40.8728 43.0103 42.3013 43.6264C43.7297 44.2425 44.9708 45.0778 46.0247 46.1325C47.0787 47.1872 47.9144 48.4284 48.5321 49.856C49.1497 51.2837 49.4574 52.8082 49.455 54.4298C49.4527 56.0513 49.1447 57.5759 48.5309 59.0035C47.9172 60.4311 47.0818 61.6723 46.0247 62.727C44.9677 63.7817 43.7265 64.6175 42.3013 65.2343C40.876 65.8512 39.3514 66.1589 37.7275 66.1573Z" fill="#192432"/>
<path d="M45.5459 174.676C42.842 174.676 40.3011 174.163 37.923 173.136C35.5449 172.109 33.4763 170.717 31.7172 168.959C29.958 167.201 28.5657 165.132 27.5402 162.753C26.5147 160.374 26.0013 157.833 26 155.13C25.9987 152.428 26.5121 149.887 27.5402 147.507C28.5683 145.128 29.9606 143.059 31.7172 141.301C33.4737 139.544 35.5423 138.151 37.923 137.124C40.3037 136.098 42.8446 135.584 45.5459 135.584C48.2471 135.584 50.7881 136.098 53.1688 137.124C55.5494 138.151 57.6181 139.544 59.3746 141.301C61.1311 143.059 62.5241 145.128 63.5535 147.507C64.5829 149.887 65.0957 152.428 65.0917 155.13C65.0878 157.833 64.5744 160.374 63.5515 162.753C62.5286 165.132 61.1363 167.201 59.3746 168.959C57.6128 170.717 55.5442 172.11 53.1688 173.138C50.7933 174.166 48.2523 174.679 45.5459 174.676Z" fill="#192432"/>
<path d="M169.389 174.676C166.685 174.676 164.144 174.163 161.766 173.136C159.388 172.109 157.319 170.717 155.56 168.959C153.801 167.201 152.409 165.132 151.383 162.753C150.358 160.374 149.844 157.833 149.843 155.13C149.842 152.428 150.355 149.887 151.383 147.507C152.411 145.128 153.804 143.059 155.56 141.301C157.317 139.544 159.385 138.151 161.766 137.124C164.147 136.098 166.688 135.584 169.389 135.584C172.09 135.584 174.631 136.098 177.012 137.124C179.392 138.151 181.461 139.544 183.218 141.301C184.974 143.059 186.367 145.128 187.396 147.507C188.426 149.887 188.939 152.428 188.935 155.13C188.931 157.833 188.417 160.374 187.395 162.753C186.372 165.132 184.979 167.201 183.218 168.959C181.456 170.717 179.387 172.11 177.012 173.138C174.636 174.166 172.095 174.679 169.389 174.676Z" fill="#192432"/>
</svg>
