<svg width="220" height="220" viewBox="0 0 220 220" fill="none" xmlns="http://www.w3.org/2000/svg">
<rect width="220" height="220" fill="#192432"/>
<path d="M47.8568 74.0562H41.427C39.2507 74.0562 37.1003 74.5285 35.1243 75.4404L34.7995 75.5904C33.0203 76.4115 31.4425 77.6122 30.1767 79.1081C28.1256 81.5322 27.0001 84.6048 27.0001 87.7802V89.8146C27.0657 91.5563 27.1988 92.9416 27.3948 94.0795C28.1501 98.4657 31.5632 102.102 35.602 103.972C36.4601 104.37 37.2553 104.567 38.1236 104.646H46.0029H73.8118H84.4719C89.5914 104.646 93.7416 108.796 93.7416 113.916V120.868V138.017V157.947V181.584C93.7416 186.07 95.1316 190.649 98.572 193.528C100.171 194.866 101.698 195.735 103.484 196.312C104.99 196.798 106.588 196.879 108.17 196.879H111.882C114.858 196.879 117.763 195.972 120.21 194.278L121.392 193.459C122.109 192.963 123.003 191.917 123.527 191.219C125.226 188.956 126.649 186.692 126.649 183.863V181.584V157.947V138.017V120.868V113.916C126.649 108.796 130.799 104.646 135.919 104.646H138.236H153.067H161.874H174.388H181.999C183.398 104.646 184.781 104.353 186.059 103.784C187.526 103.132 188.854 102.163 189.741 100.825C191.162 98.6824 191.658 97.0068 192 94.4494V88.6569C192 85.762 191.387 82.7723 189.739 80.3923C187.544 77.2219 183.935 75.5216 180.147 74.8001L178.438 74.4746C176.977 74.1962 175.493 74.0562 174.005 74.0562H163.728H150.75H138.236H125.82C121.561 74.0562 117.432 75.53 114.135 78.2275L113.332 78.9574C110.927 81.1434 107.23 81.0554 104.932 78.7575C104.58 78.4055 104.186 78.098 103.759 77.8419L102.263 76.944C99.1131 75.0543 95.5093 74.0562 91.8365 74.0562H84.4719H71.0309H59.4439H47.8568Z" fill="white" stroke="#192435" stroke-width="0.926966"/>
<path d="M109.345 62.6236C106.674 62.6236 104.163 62.1163 101.814 61.1018C99.4643 60.0873 97.4205 58.7117 95.6824 56.9749C93.9443 55.2381 92.5687 53.1943 91.5555 50.8434C90.5422 48.4925 90.035 45.982 90.0337 43.3118C90.0324 40.6416 90.5397 38.1311 91.5555 35.7802C92.5713 33.4293 93.9469 31.3855 95.6824 29.6487C97.4179 27.9119 99.4617 26.5363 101.814 25.5218C104.166 24.5073 106.677 24 109.345 24C112.014 24 114.525 24.5073 116.877 25.5218C119.229 26.5363 121.273 27.9119 123.009 29.6487C124.744 31.3855 126.12 33.4293 127.137 35.7802C128.155 38.1311 128.661 40.6416 128.657 43.3118C128.653 45.982 128.146 48.4925 127.136 50.8434C126.125 53.1943 124.749 55.2381 123.009 56.9749C121.268 58.7117 119.224 60.0879 116.877 61.1037C114.53 62.1195 112.02 62.6262 109.345 62.6236Z" fill="white"/>
<path d="M180.413 66.6405C178.81 66.6405 177.303 66.3361 175.894 65.7274C174.484 65.1187 173.257 64.2933 172.215 63.2512C171.172 62.2092 170.346 60.9829 169.739 59.5723C169.131 58.1618 168.826 56.6555 168.825 55.0534C168.825 53.4513 169.129 51.945 169.739 50.5344C170.348 49.1239 171.173 47.8976 172.215 46.8555C173.256 45.8135 174.482 44.9881 175.894 44.3794C177.305 43.7707 178.811 43.4663 180.413 43.4663C182.014 43.4663 183.52 43.7707 184.931 44.3794C186.343 44.9881 187.569 45.8135 188.61 46.8555C189.652 47.8976 190.477 49.1239 191.088 50.5344C191.698 51.945 192.002 53.4513 192 55.0534C191.997 56.6555 191.693 58.1618 191.087 59.5723C190.48 60.9829 189.655 62.2092 188.61 63.2512C187.566 64.2933 186.34 65.1191 184.931 65.7285C183.523 66.338 182.017 66.642 180.413 66.6405Z" fill="white"/>
<path d="M38.5871 66.6405C36.9842 66.6405 35.4779 66.3361 34.0681 65.7274C32.6584 65.1187 31.4321 64.2933 30.3892 63.2512C29.3464 62.2092 28.521 60.9829 27.9131 59.5723C27.3051 58.1618 27.0008 56.6555 27 55.0534C26.9992 53.4513 27.3036 51.945 27.9131 50.5344C28.5225 49.1239 29.3479 47.8976 30.3892 46.8555C31.4305 45.8135 32.6568 44.9881 34.0681 44.3794C35.4794 43.7707 36.9857 43.4663 38.5871 43.4663C40.1884 43.4663 41.6947 43.7707 43.106 44.3794C44.5173 44.9881 45.7436 45.8135 46.7849 46.8555C47.8262 47.8976 48.652 49.1239 49.2622 50.5344C49.8725 51.945 50.1765 53.4513 50.1742 55.0534C50.1718 56.6555 49.8675 58.1618 49.2611 59.5723C48.6547 60.9829 47.8293 62.2092 46.7849 63.2512C45.7405 64.2933 44.5142 65.1191 43.106 65.7285C41.6978 66.338 40.1915 66.642 38.5871 66.6405Z" fill="white"/>
<path d="M46.3118 173.86C43.6403 173.86 41.1298 173.352 38.7802 172.338C36.4306 171.323 34.3868 169.948 32.6487 168.211C30.9106 166.474 29.535 164.43 28.5218 162.079C27.5085 159.728 27.0013 157.218 27 154.548C26.9987 151.878 27.506 149.367 28.5218 147.016C29.5376 144.665 30.9132 142.621 32.6487 140.885C34.3842 139.148 36.428 137.772 38.7802 136.758C41.1324 135.743 43.6429 135.236 46.3118 135.236C48.9807 135.236 51.4912 135.743 53.8434 136.758C56.1956 137.772 58.2394 139.148 59.9749 140.885C61.7104 142.621 63.0867 144.665 64.1037 147.016C65.1208 149.367 65.6274 151.878 65.6236 154.548C65.6197 157.218 65.1125 159.728 64.1018 162.079C63.0912 164.43 61.7155 166.474 59.9749 168.211C58.2342 169.948 56.1904 171.324 53.8434 172.34C51.4964 173.355 48.9858 173.862 46.3118 173.86Z" fill="white"/>
<path d="M168.672 173.86C166 173.86 163.49 173.352 161.14 172.338C158.79 171.323 156.747 169.948 155.009 168.211C153.271 166.474 151.895 164.43 150.882 162.079C149.868 159.728 149.361 157.218 149.36 154.548C149.359 151.878 149.866 149.367 150.882 147.016C151.897 144.665 153.273 142.621 155.009 140.885C156.744 139.148 158.788 137.772 161.14 136.758C163.492 135.743 166.003 135.236 168.672 135.236C171.341 135.236 173.851 135.743 176.203 136.758C178.555 137.772 180.599 139.148 182.335 140.885C184.07 142.621 185.447 144.665 186.464 147.016C187.481 149.367 187.987 151.878 187.983 154.548C187.98 157.218 187.472 159.728 186.462 162.079C185.451 164.43 184.075 166.474 182.335 168.211C180.594 169.948 178.55 171.324 176.203 172.34C173.856 173.355 171.346 173.862 168.672 173.86Z" fill="white"/>
</svg>
