<svg width="88" height="88" viewBox="0 0 88 88" fill="none" xmlns="http://www.w3.org/2000/svg">
<mask id="mask0_358_10388" style="mask-type:alpha" maskUnits="userSpaceOnUse" x="0" y="0" width="88" height="88">
<rect width="88" height="88" fill="#D9D9D9"/>
</mask>
<g mask="url(#mask0_358_10388)">
<path d="M47.6667 58.6667H66V29.3333H47.6667V58.6667ZM22 58.6667H40.3333V29.3333H22V58.6667ZM14.6667 73.3333C12.65 73.3333 10.9236 72.6153 9.4875 71.1792C8.05139 69.7431 7.33334 68.0167 7.33334 66V22C7.33334 19.9833 8.05139 18.2569 9.4875 16.8208C10.9236 15.3847 12.65 14.6667 14.6667 14.6667H73.3333C75.35 14.6667 77.0764 15.3847 78.5125 16.8208C79.9486 18.2569 80.6667 19.9833 80.6667 22V66C80.6667 68.0167 79.9486 69.7431 78.5125 71.1792C77.0764 72.6153 75.35 73.3333 73.3333 73.3333H14.6667ZM73.3333 22H14.6667V66H73.3333V22Z" fill="#2C2C2C"/>
</g>
</svg>
