<svg width="264" height="264" viewBox="0 0 264 264" fill="none" xmlns="http://www.w3.org/2000/svg">
<mask id="mask0_49_2374" style="mask-type:alpha" maskUnits="userSpaceOnUse" x="0" y="0" width="264" height="264">
<rect width="264" height="264" fill="#D9D9D9"/>
</mask>
<g mask="url(#mask0_49_2374)">
<path d="M143 176H198V88H143V176ZM66 176H121V88H66V176ZM44 220C37.95 220 32.7708 217.846 28.4625 213.538C24.1542 209.229 22 204.05 22 198V66C22 59.95 24.1542 54.7708 28.4625 50.4625C32.7708 46.1542 37.95 44 44 44H220C226.05 44 231.229 46.1542 235.538 50.4625C239.846 54.7708 242 59.95 242 66V198C242 204.05 239.846 209.229 235.538 213.538C231.229 217.846 226.05 220 220 220H44ZM220 66H44V198H220V66Z" fill="#1C1B1F"/>
</g>
</svg>
