<svg width="88" height="88" viewBox="0 0 88 88" fill="none" xmlns="http://www.w3.org/2000/svg">
<mask id="mask0_358_10410" style="mask-type:alpha" maskUnits="userSpaceOnUse" x="0" y="0" width="88" height="88">
<rect width="88" height="88" fill="#D9D9D9"/>
</mask>
<g mask="url(#mask0_358_10410)">
<path d="M23.8333 77C20.2889 77 17.2639 75.7472 14.7583 73.2417C12.2528 70.7361 11 67.7111 11 64.1667C11 60.6222 12.2528 57.5972 14.7583 55.0917C17.2639 52.5861 20.2889 51.3333 23.8333 51.3333H29.3333V36.6667H23.8333C20.2889 36.6667 17.2639 35.4139 14.7583 32.9083C12.2528 30.4028 11 27.3778 11 23.8333C11 20.2889 12.2528 17.2639 14.7583 14.7583C17.2639 12.2528 20.2889 11 23.8333 11C27.3778 11 30.4028 12.2528 32.9083 14.7583C35.4139 17.2639 36.6667 20.2889 36.6667 23.8333V29.3333H51.3333V23.8333C51.3333 20.2889 52.5861 17.2639 55.0917 14.7583C57.5972 12.2528 60.6222 11 64.1667 11C67.7111 11 70.7361 12.2528 73.2417 14.7583C75.7472 17.2639 77 20.2889 77 23.8333C77 27.3778 75.7472 30.4028 73.2417 32.9083C70.7361 35.4139 67.7111 36.6667 64.1667 36.6667H58.6667V51.3333H64.1667C67.7111 51.3333 70.7361 52.5861 73.2417 55.0917C75.7472 57.5972 77 60.6222 77 64.1667C77 67.7111 75.7472 70.7361 73.2417 73.2417C70.7361 75.7472 67.7111 77 64.1667 77C60.6222 77 57.5972 75.7472 55.0917 73.2417C52.5861 70.7361 51.3333 67.7111 51.3333 64.1667V58.6667H36.6667V64.1667C36.6667 67.7111 35.4139 70.7361 32.9083 73.2417C30.4028 75.7472 27.3778 77 23.8333 77ZM23.8333 69.6667C25.3611 69.6667 26.6597 69.1319 27.7292 68.0625C28.7986 66.9931 29.3333 65.6944 29.3333 64.1667V58.6667H23.8333C22.3056 58.6667 21.0069 59.2014 19.9375 60.2708C18.8681 61.3403 18.3333 62.6389 18.3333 64.1667C18.3333 65.6944 18.8681 66.9931 19.9375 68.0625C21.0069 69.1319 22.3056 69.6667 23.8333 69.6667ZM64.1667 69.6667C65.6944 69.6667 66.9931 69.1319 68.0625 68.0625C69.1319 66.9931 69.6667 65.6944 69.6667 64.1667C69.6667 62.6389 69.1319 61.3403 68.0625 60.2708C66.9931 59.2014 65.6944 58.6667 64.1667 58.6667H58.6667V64.1667C58.6667 65.6944 59.2014 66.9931 60.2708 68.0625C61.3403 69.1319 62.6389 69.6667 64.1667 69.6667ZM36.6667 51.3333H51.3333V36.6667H36.6667V51.3333ZM23.8333 29.3333H29.3333V23.8333C29.3333 22.3056 28.7986 21.0069 27.7292 19.9375C26.6597 18.8681 25.3611 18.3333 23.8333 18.3333C22.3056 18.3333 21.0069 18.8681 19.9375 19.9375C18.8681 21.0069 18.3333 22.3056 18.3333 23.8333C18.3333 25.3611 18.8681 26.6597 19.9375 27.7292C21.0069 28.7986 22.3056 29.3333 23.8333 29.3333ZM58.6667 29.3333H64.1667C65.6944 29.3333 66.9931 28.7986 68.0625 27.7292C69.1319 26.6597 69.6667 25.3611 69.6667 23.8333C69.6667 22.3056 69.1319 21.0069 68.0625 19.9375C66.9931 18.8681 65.6944 18.3333 64.1667 18.3333C62.6389 18.3333 61.3403 18.8681 60.2708 19.9375C59.2014 21.0069 58.6667 22.3056 58.6667 23.8333V29.3333Z" fill="#2C2C2C"/>
</g>
</svg>
