<svg width="72" height="72" viewBox="0 0 72 72" fill="none" xmlns="http://www.w3.org/2000/svg">
<path fill-rule="evenodd" clip-rule="evenodd" d="M67.9692 20.1278L60.3322 12.4908C59.2777 11.4364 57.5681 11.4364 56.5137 12.4908L19.2961 49.7084C19.1963 49.8082 19.106 49.9138 19.025 50.0242C18.824 50.2922 18.6698 50.6023 18.5778 50.9457L15.8333 61.1879H3.60005C2.60595 61.1879 1.8 61.9939 1.8 62.988C1.8 63.9821 2.60595 64.788 3.60005 64.788H18.2525C18.3064 64.788 18.3599 64.7857 18.4126 64.781C18.6402 64.78 18.8714 64.75 19.1015 64.6884L29.5269 61.8949C30.0934 61.7431 30.5693 61.422 30.9148 61.0007L67.9692 23.9463C69.0236 22.8919 69.0236 21.1823 67.9692 20.1278ZM22.207 58.2656L23.6093 53.0321L50.8028 25.8387C50.875 25.9331 50.9542 26.0238 51.0405 26.1101L54.6045 29.674L27.4059 56.8726L22.207 58.2656ZM54.859 22.2916C54.7727 22.2053 54.682 22.1261 54.5876 22.0539L58.4229 18.2186L62.2414 22.0371L58.4229 25.8556L54.859 22.2916Z" fill="#2C2C2C"/>
</svg>
