<svg width="88" height="83" viewBox="0 0 88 83" fill="none" xmlns="http://www.w3.org/2000/svg">
<path fill-rule="evenodd" clip-rule="evenodd" d="M43.7136 0.91357C41.2856 2.87971 42.8069 7.29673 45.9117 7.29673C48.3125 7.29673 49.5912 6.11092 49.5912 3.88466C49.5912 0.507603 46.2812 -1.16586 43.7136 0.91357ZM71.1555 9.57792C68.4659 10.104 67.4829 14.0061 69.5249 16.0481C70.5677 17.091 72.9 17.3302 74.3678 16.5445C75.6046 15.8823 76.4039 13.3848 75.8472 11.9204C75.485 10.9679 72.9131 9.04944 72.3448 9.3076C72.2645 9.34407 71.7292 9.46561 71.1555 9.57792ZM24.5525 11.1765C16.6539 11.5202 13.9128 12.356 9.36252 15.8074C3.03479 20.6071 0 27.1376 0 35.9546C0 44.7711 4.81034 52.7806 12.8422 57.3386C17.44 59.948 19.5739 60.2912 31.1875 60.2912C42.9712 60.2912 44.4629 60.0204 48.9124 57.0731C51.7105 55.2193 52.1368 55.125 53.0023 56.1678C54.3364 57.7752 59.4739 61.2636 60.5075 61.2636C61.918 61.2636 64.1768 59.1754 64.1768 57.8719C64.1768 57.2749 62.5923 55.2144 60.2839 52.8102L56.391 48.7549L57.5656 46.1363C60.9339 38.6291 60.0097 27.8163 55.4308 21.1609C51.6424 15.6548 45.3244 11.811 38.966 11.143C34.9914 10.7253 34.9034 10.7258 24.5525 11.1765ZM39.3204 18.4227C47.2327 20.8852 52.1193 26.5629 52.8243 34.1119C53.5507 41.8919 49.3607 49.2095 42.3382 52.4247C40.0546 53.47 38.7618 53.6829 33.565 53.8691C22.387 54.2693 16.5493 52.5754 11.9374 47.5939C8.45578 43.8337 7.10953 40.4163 7.07549 35.2525C7.05313 31.8745 7.24955 30.942 8.5676 28.1595C11.0326 22.9578 14.8564 19.9201 21.0349 18.2564C25.0076 17.1863 35.6594 17.283 39.3204 18.4227ZM21.6354 30.4996C20.2103 30.8496 19.3775 31.6562 18.6536 33.388C17.4075 36.3698 19.5768 39.3851 22.9685 39.3851C25.0829 39.3851 26.5376 38.3131 27.2173 36.2531C27.948 34.039 26.8395 31.8011 24.536 30.8384C23.6263 30.4587 22.8202 30.1728 22.7448 30.204C22.6695 30.2351 22.1702 30.3678 21.6354 30.4996ZM37.6309 31.8006C35.781 33.6505 35.6429 34.3998 36.7305 36.6916C39.302 42.1107 47.4869 38.5489 45.1926 33.0097C43.8974 29.8826 40.1484 29.2831 37.6309 31.8006ZM81.8264 37.1978C78.9832 39.1892 80.6464 44.1887 84.1664 44.2314C86.2935 44.2572 88 42.5327 88 40.3575C88 37.1827 84.4455 35.3634 81.8264 37.1978ZM71.2046 53.7058C69.6017 55.3088 69.625 57.5185 71.262 59.1555C73.6823 61.5757 77.7901 59.6679 77.7901 56.1236C77.7901 52.7597 73.6652 51.2447 71.2046 53.7058ZM26.7846 70.5444C24.1349 71.6048 23.5009 74.5987 25.503 76.6004C28.9048 80.0027 34.3725 75.081 31.0971 71.5654C30.552 70.98 29.9132 70.5011 29.6784 70.5011C29.443 70.5011 28.9593 70.4054 28.6034 70.2887C28.247 70.1715 27.4288 70.2867 26.7846 70.5444ZM57.517 73.1757C56.2393 74.0707 55.6598 76.4151 56.3827 77.7653C56.6773 78.3161 57.4587 79.1203 58.1194 79.5535C59.1345 80.2186 59.5488 80.2458 60.7949 79.73C62.5291 79.0114 63.2044 77.9325 63.2044 75.8813C63.2044 72.9992 59.9674 71.4594 57.517 73.1757ZM41.8122 75.1977C37.4301 76.9334 38.173 81.9883 42.8881 82.5202C44.845 82.7404 45.3064 82.6092 46.394 81.5216C47.8705 80.045 48.0383 77.8951 46.7956 76.3743C45.9336 75.3198 43.1589 74.6644 41.8122 75.1977Z" fill="#2C2C2C"/>
</svg>
