<svg width="88" height="88" viewBox="0 0 88 88" fill="none" xmlns="http://www.w3.org/2000/svg">
<path d="M22 35.2C22 32.77 23.9699 30.8 26.4 30.8H52.8C55.2301 30.8 57.2 32.77 57.2 35.2C57.2 37.6301 55.2301 39.6 52.8 39.6H26.4C23.9699 39.6 22 37.6301 22 35.2Z" fill="#2C2C2C"/>
<path d="M26.4 48.4C23.9699 48.4 22 50.37 22 52.8C22 55.2301 23.9699 57.2 26.4 57.2H61.6C64.0301 57.2 66 55.2301 66 52.8C66 50.37 64.0301 48.4 61.6 48.4H26.4Z" fill="#2C2C2C"/>
<path fill-rule="evenodd" clip-rule="evenodd" d="M26.4 8.80005C11.8197 8.80005 0 20.6197 0 35.2V74.8C0 77.2301 1.96995 79.2 4.4 79.2H61.6C76.1803 79.2 88 67.3804 88 52.8V35.2C88 20.6197 76.1803 8.80005 61.6 8.80005H26.4ZM61.6 17.6H26.4C16.6798 17.6 8.8 25.4798 8.8 35.2V70.4H61.6C71.3202 70.4 79.2 62.5203 79.2 52.8V35.2C79.2 25.4798 71.3202 17.6 61.6 17.6Z" fill="#2C2C2C"/>
</svg>
