<svg width="88" height="88" viewBox="0 0 88 88" fill="none" xmlns="http://www.w3.org/2000/svg">
<path fill-rule="evenodd" clip-rule="evenodd" d="M23.7554 61.0895C26.3328 58.5122 26.3328 54.3334 23.7554 51.756C21.178 49.1786 16.9993 49.1786 14.4219 51.756C11.8445 54.3334 11.8445 58.5122 14.4219 61.0895C16.9993 63.6669 21.178 63.6669 23.7554 61.0895ZM22.1998 59.534C23.9181 57.8157 23.9181 55.0299 22.1998 53.3116C20.4816 51.5933 17.6957 51.5933 15.9775 53.3116C14.2592 55.0299 14.2592 57.8157 15.9775 59.534C17.6957 61.2522 20.4816 61.2522 22.1998 59.534Z" fill="#2C2C2C"/>
<path fill-rule="evenodd" clip-rule="evenodd" d="M36.2001 39.3113C38.7775 41.8886 38.7775 46.0674 36.2001 48.6448C33.6227 51.2222 29.4439 51.2222 26.8665 48.6448C24.2892 46.0674 24.2892 41.8886 26.8665 39.3113C29.4439 36.7339 33.6227 36.7339 36.2001 39.3113ZM34.6445 40.8668C36.3627 42.5851 36.3627 45.3709 34.6445 47.0892C32.9262 48.8075 30.1404 48.8075 28.4221 47.0892C26.7039 45.3709 26.7039 42.5851 28.4221 40.8668C30.1404 39.1486 32.9262 39.1486 34.6445 40.8668Z" fill="#2C2C2C"/>
<path fill-rule="evenodd" clip-rule="evenodd" d="M48.6448 36.2002C51.2222 33.6228 51.2222 29.4441 48.6448 26.8667C46.0675 24.2893 41.8887 24.2893 39.3113 26.8667C36.7339 29.4441 36.7339 33.6228 39.3113 36.2002C41.8887 38.7776 46.0675 38.7776 48.6448 36.2002ZM47.0892 34.6446C48.8075 32.9264 48.8075 30.1405 47.0892 28.4223C45.371 26.704 42.5851 26.704 40.8669 28.4223C39.1486 30.1405 39.1486 32.9264 40.8669 34.6446C42.5851 36.3629 45.371 36.3629 47.0892 34.6446Z" fill="#2C2C2C"/>
<path fill-rule="evenodd" clip-rule="evenodd" d="M61.0895 14.4219C63.6669 16.9993 63.6669 21.1781 61.0895 23.7554C58.5121 26.3328 54.3334 26.3328 51.756 23.7554C49.1786 21.1781 49.1786 16.9993 51.756 14.4219C54.3334 11.8445 58.5121 11.8445 61.0895 14.4219ZM59.5339 15.9775C61.2522 17.6958 61.2522 20.4816 59.5339 22.1999C57.8157 23.9181 55.0298 23.9181 53.3116 22.1999C51.5933 20.4816 51.5933 17.6958 53.3116 15.9775C55.0298 14.2592 57.8157 14.2592 59.5339 15.9775Z" fill="#2C2C2C"/>
<path fill-rule="evenodd" clip-rule="evenodd" d="M36.2001 73.5343C38.7775 70.9569 38.7775 66.7781 36.2001 64.2008C33.6227 61.6234 29.4439 61.6234 26.8665 64.2008C24.2892 66.7781 24.2892 70.9569 26.8665 73.5343C29.4439 76.1117 33.6227 76.1117 36.2001 73.5343ZM34.6445 71.9787C36.3627 70.2605 36.3627 67.4746 34.6445 65.7564C32.9262 64.0381 30.1404 64.0381 28.4221 65.7564C26.7039 67.4746 26.7039 70.2605 28.4221 71.9787C30.1404 73.697 32.9262 73.697 34.6445 71.9787Z" fill="#2C2C2C"/>
<path fill-rule="evenodd" clip-rule="evenodd" d="M48.6448 51.756C51.2222 54.3334 51.2222 58.5122 48.6448 61.0895C46.0675 63.6669 41.8887 63.6669 39.3113 61.0895C36.7339 58.5122 36.7339 54.3334 39.3113 51.756C41.8887 49.1786 46.0675 49.1786 48.6448 51.756ZM47.0892 53.3116C48.8075 55.0299 48.8075 57.8157 47.0892 59.534C45.371 61.2522 42.5851 61.2522 40.8669 59.534C39.1486 57.8157 39.1486 55.0299 40.8669 53.3116C42.5851 51.5933 45.371 51.5933 47.0892 53.3116Z" fill="#2C2C2C"/>
<path fill-rule="evenodd" clip-rule="evenodd" d="M61.0895 48.6448C63.6669 46.0674 63.6669 41.8886 61.0895 39.3113C58.5121 36.7339 54.3334 36.7339 51.756 39.3113C49.1786 41.8886 49.1786 46.0674 51.756 48.6448C54.3334 51.2222 58.5121 51.2222 61.0895 48.6448ZM59.5339 47.0892C61.2522 45.3709 61.2522 42.5851 59.5339 40.8668C57.8157 39.1486 55.0298 39.1486 53.3116 40.8668C51.5933 42.5851 51.5933 45.3709 53.3116 47.0892C55.0298 48.8075 57.8157 48.8075 59.5339 47.0892Z" fill="#2C2C2C"/>
<path fill-rule="evenodd" clip-rule="evenodd" d="M73.5342 26.8667C76.1116 29.4441 76.1116 33.6228 73.5342 36.2002C70.9568 38.7776 66.778 38.7776 64.2006 36.2002C61.6233 33.6228 61.6233 29.4441 64.2006 26.8667C66.778 24.2893 70.9568 24.2893 73.5342 26.8667ZM71.9786 28.4223C73.6968 30.1405 73.6968 32.9264 71.9786 34.6446C70.2603 36.3629 67.4745 36.3629 65.7562 34.6446C64.038 32.9264 64.038 30.1405 65.7562 28.4223C67.4745 26.704 70.2603 26.704 71.9786 28.4223Z" fill="#2C2C2C"/>
<path fill-rule="evenodd" clip-rule="evenodd" d="M28.4222 84.4233C30.1404 86.1416 32.9263 86.1416 34.6445 84.4233L84.4234 34.6445C86.1416 32.9262 86.1416 30.1404 84.4234 28.4221L59.5339 3.5327C57.8157 1.81444 55.0298 1.81444 53.3116 3.5327L3.53275 53.3115C1.81449 55.0298 1.81449 57.8156 3.53275 59.5339L28.4222 84.4233ZM6.64393 56.4227L31.5333 81.3121L81.3122 31.5333L56.4228 6.64388L6.64393 56.4227Z" fill="#2C2C2C"/>
</svg>
