<svg width="92" height="92" viewBox="0 0 92 92" fill="none" xmlns="http://www.w3.org/2000/svg">
<path fill-rule="evenodd" clip-rule="evenodd" d="M24.8352 63.8663C27.5297 61.1718 27.5297 56.8031 24.8352 54.1085C22.1406 51.414 17.7719 51.414 15.0774 54.1085C12.3829 56.8031 12.3829 61.1718 15.0774 63.8663C17.7719 66.5609 22.1406 66.5609 24.8352 63.8663ZM23.2089 62.24C25.0052 60.4437 25.0052 57.5312 23.2089 55.7348C21.4125 53.9385 18.5001 53.9385 16.7037 55.7348C14.9073 57.5312 14.9073 60.4437 16.7037 62.24C18.5001 64.0364 21.4125 64.0364 23.2089 62.24Z" fill="black"/>
<path fill-rule="evenodd" clip-rule="evenodd" d="M37.8455 41.0981C40.5401 43.7927 40.5401 48.1614 37.8455 50.8559C35.151 53.5504 30.7823 53.5504 28.0877 50.8559C25.3932 48.1614 25.3932 43.7927 28.0877 41.0981C30.7823 38.4036 35.151 38.4036 37.8455 41.0981ZM36.2192 42.7244C38.0156 44.5208 38.0156 47.4332 36.2192 49.2296C34.4229 51.026 31.5104 51.026 29.714 49.2296C27.9177 47.4332 27.9177 44.5208 29.714 42.7244C31.5104 40.9281 34.4229 40.9281 36.2192 42.7244Z" fill="black"/>
<path fill-rule="evenodd" clip-rule="evenodd" d="M50.8559 37.8456C53.5505 35.1511 53.5505 30.7824 50.8559 28.0879C48.1614 25.3933 43.7927 25.3933 41.0982 28.0879C38.4036 30.7824 38.4036 35.1511 41.0982 37.8456C43.7927 40.5402 48.1614 40.5402 50.8559 37.8456ZM49.2296 36.2194C51.026 34.423 51.026 31.5105 49.2296 29.7142C47.4333 27.9178 44.5208 27.9178 42.7245 29.7142C40.9281 31.5105 40.9281 34.423 42.7245 36.2194C44.5208 38.0157 47.4333 38.0157 49.2296 36.2194Z" fill="black"/>
<path fill-rule="evenodd" clip-rule="evenodd" d="M63.8663 15.0774C66.5608 17.772 66.5608 22.1407 63.8663 24.8352C61.1717 27.5298 56.803 27.5298 54.1085 24.8352C51.414 22.1407 51.414 17.772 54.1085 15.0774C56.803 12.3829 61.1717 12.3829 63.8663 15.0774ZM62.24 16.7037C64.0363 18.5001 64.0363 21.4126 62.24 23.2089C60.4436 25.0053 57.5312 25.0053 55.7348 23.2089C53.9384 21.4126 53.9384 18.5001 55.7348 16.7037C57.5312 14.9074 60.4436 14.9074 62.24 16.7037Z" fill="black"/>
<path fill-rule="evenodd" clip-rule="evenodd" d="M37.8455 76.8767C40.5401 74.1822 40.5401 69.8135 37.8455 67.119C35.151 64.4244 30.7823 64.4244 28.0877 67.119C25.3932 69.8135 25.3932 74.1822 28.0877 76.8767C30.7823 79.5713 35.151 79.5713 37.8455 76.8767ZM36.2192 75.2505C38.0156 73.4541 38.0156 70.5416 36.2192 68.7453C34.4229 66.9489 31.5104 66.9489 29.714 68.7453C27.9177 70.5416 27.9177 73.4541 29.714 75.2505C31.5104 77.0468 34.4229 77.0468 36.2192 75.2505Z" fill="black"/>
<path fill-rule="evenodd" clip-rule="evenodd" d="M50.8559 54.1085C53.5505 56.8031 53.5505 61.1718 50.8559 63.8663C48.1614 66.5609 43.7927 66.5609 41.0982 63.8663C38.4036 61.1718 38.4036 56.8031 41.0982 54.1085C43.7927 51.414 48.1614 51.414 50.8559 54.1085ZM49.2296 55.7348C51.026 57.5312 51.026 60.4437 49.2296 62.24C47.4333 64.0364 44.5208 64.0364 42.7245 62.24C40.9281 60.4437 40.9281 57.5312 42.7245 55.7348C44.5208 53.9385 47.4333 53.9385 49.2296 55.7348Z" fill="black"/>
<path fill-rule="evenodd" clip-rule="evenodd" d="M63.8663 50.8559C66.5608 48.1614 66.5608 43.7927 63.8663 41.0981C61.1717 38.4036 56.803 38.4036 54.1085 41.0981C51.414 43.7927 51.414 48.1614 54.1085 50.8559C56.803 53.5504 61.1717 53.5504 63.8663 50.8559ZM62.24 49.2296C64.0363 47.4332 64.0363 44.5208 62.24 42.7244C60.4436 40.9281 57.5312 40.9281 55.7348 42.7244C53.9384 44.5208 53.9384 47.4332 55.7348 49.2296C57.5312 51.026 60.4436 51.026 62.24 49.2296Z" fill="black"/>
<path fill-rule="evenodd" clip-rule="evenodd" d="M76.8766 28.0879C79.5712 30.7824 79.5712 35.1511 76.8766 37.8456C74.1821 40.5402 69.8134 40.5402 67.1188 37.8456C64.4243 35.1511 64.4243 30.7824 67.1188 28.0879C69.8134 25.3933 74.1821 25.3933 76.8766 28.0879ZM75.2503 29.7142C77.0467 31.5105 77.0467 34.423 75.2503 36.2194C73.454 38.0157 70.5415 38.0157 68.7451 36.2194C66.9488 34.423 66.9488 31.5105 68.7451 29.7142C70.5415 27.9178 73.454 27.9178 75.2503 29.7142Z" fill="black"/>
<path fill-rule="evenodd" clip-rule="evenodd" d="M29.7141 88.2607C31.5104 90.0571 34.4229 90.0571 36.2193 88.2607L88.2608 36.2192C90.0571 34.4228 90.0571 31.5104 88.2608 29.714L62.24 3.69326C60.4437 1.8969 57.5312 1.8969 55.7348 3.69326L3.69331 55.7348C1.89696 57.5311 1.89696 60.4436 3.69331 62.24L29.7141 88.2607ZM6.94591 58.9874L32.9667 85.0081L85.0082 32.9666L58.9874 6.94586L6.94591 58.9874Z" fill="black"/>
</svg>
