<svg width="88" height="88" viewBox="0 0 88 88" fill="none" xmlns="http://www.w3.org/2000/svg">
<path fill-rule="evenodd" clip-rule="evenodd" d="M2.2 6.6C2.2 4.16994 4.16994 2.2 6.6 2.2H35.2C37.6301 2.2 39.6 4.16994 39.6 6.6V24.2C39.6 26.6301 37.6301 28.6 35.2 28.6H6.6C4.16994 28.6 2.2 26.6301 2.2 24.2V6.6ZM6.6 6.6H35.2V24.2H6.6L6.6 6.6Z" fill="#2C2C2C"/>
<path fill-rule="evenodd" clip-rule="evenodd" d="M48.4 6.6C48.4 4.16994 50.37 2.2 52.8 2.2H81.4C83.8301 2.2 85.8 4.16994 85.8 6.6V46.2C85.8 48.6301 83.8301 50.6 81.4 50.6H52.8C50.37 50.6 48.4 48.6301 48.4 46.2V6.6ZM52.8 6.6H81.4V46.2H52.8V6.6Z" fill="#2C2C2C"/>
<path fill-rule="evenodd" clip-rule="evenodd" d="M6.6 37.4C4.16994 37.4 2.2 39.3699 2.2 41.8V81.4C2.2 83.8301 4.16994 85.8 6.6 85.8H35.2C37.6301 85.8 39.6 83.8301 39.6 81.4V41.8C39.6 39.37 37.6301 37.4 35.2 37.4H6.6ZM35.2 41.8H6.6L6.6 81.4H35.2V41.8Z" fill="#2C2C2C"/>
<path fill-rule="evenodd" clip-rule="evenodd" d="M48.4 63.8C48.4 61.37 50.37 59.4 52.8 59.4H81.4C83.8301 59.4 85.8 61.37 85.8 63.8V81.4C85.8 83.8301 83.8301 85.8 81.4 85.8H52.8C50.37 85.8 48.4 83.8301 48.4 81.4V63.8ZM52.8 63.8H81.4V81.4H52.8V63.8Z" fill="#2C2C2C"/>
</svg>
