<svg width="128" height="128" viewBox="0 0 128 128" fill="none" xmlns="http://www.w3.org/2000/svg">
<g clip-path="url(#clip0_91_3466)">
<path d="M128 0H0V128H128V0Z" fill="#F5F5F5"/>
<path d="M102 8H26C16.0589 8 8 16.0589 8 26V102C8 111.941 16.0589 120 26 120H102C111.941 120 120 111.941 120 102V26C120 16.0589 111.941 8 102 8Z" fill="#F5F5F5"/>
<path d="M102 8H26C16.0589 8 8 16.0589 8 26V102C8 111.941 16.0589 120 26 120H102C111.941 120 120 111.941 120 102V26C120 16.0589 111.941 8 102 8Z" stroke="url(#paint0_linear_91_3466)" stroke-width="4"/>
<path fill-rule="evenodd" clip-rule="evenodd" d="M28.6067 28.0906L22 32.0993V56.3161V80.5324L29.1258 85.0079C33.1526 87.5373 36.4895 89.3886 36.7987 89.2655C38.1238 88.7375 48.2382 82.3237 48.2382 82.0113C48.2382 81.8208 45.6476 80.0338 42.4809 78.0403C39.3146 76.0471 36.1713 73.9947 35.4966 73.4793L34.2697 72.5425V65.311C34.2697 61.3337 34.3403 58.0795 34.4267 58.0795C35.0927 58.0795 49.0714 67.0608 50.0364 68.1089C50.714 68.8446 51.3622 69.4467 51.477 69.4467C51.5918 69.4467 53.1257 68.5636 54.8861 67.4837C59.6048 64.5902 62.5945 63.0956 63.1898 63.3327C63.6323 63.5087 63.7169 67.1243 63.7169 85.8605C63.7169 106.928 63.7539 108.168 64.3775 107.986C64.7411 107.88 67.9263 105.987 71.4562 103.778L77.8742 99.7633L78.0629 83.3311L78.2517 66.8989L85.236 62.5096C89.0773 60.0954 92.3478 58.1109 92.5034 58.0999C92.6589 58.0885 92.7865 64.9586 92.7865 73.3664C92.7865 81.7742 92.8616 88.6533 92.9538 88.6533C93.2377 88.6533 104.638 81.1651 105.339 80.5183C105.955 79.9503 106 78.2915 106 56.3157C106 34.339 105.955 32.6814 105.339 32.1162C104.976 31.7822 101.922 29.8196 98.5521 27.7547L92.4256 24L85.3386 28.2443C79.5783 31.6936 70.8699 37.0032 64.8094 40.7603C63.8411 41.3608 63.6108 41.2397 50.2746 33.1169C42.8214 28.5774 36.3838 24.6875 35.9685 24.4727C35.3437 24.1497 34.0752 24.773 28.6067 28.0906ZM47.6111 35.93C53.9778 39.8086 59.1865 43.0917 59.1865 43.2254C59.1865 43.3594 57.0267 44.7717 54.3866 46.3643C51.747 47.9573 49.0182 49.6098 48.3228 50.0371C47.1505 50.7575 46.9844 50.7693 46.0436 50.1989C45.4856 49.8607 40.867 47.0804 35.7798 44.0203C30.6926 40.9602 26.2245 38.0788 25.8508 37.6171C24.406 35.8324 25.0081 35.0693 30.4785 31.752C33.273 30.0571 35.6665 28.7174 35.7975 28.7742C35.9285 28.831 41.2449 32.0511 47.6111 35.93ZM96.4391 31.0841C98.6869 32.4054 100.993 33.8283 101.564 34.2465C103.045 35.3307 102.918 36.5901 101.187 37.9985C99.474 39.3903 81.1896 50.6321 80.6377 50.6321C79.9532 50.6321 68.6391 43.4778 68.8263 43.1635C68.9249 42.9973 73.2098 40.2633 78.348 37.0879C83.4861 33.9126 88.6243 30.727 89.7663 30.0085C90.9083 29.2904 91.9575 28.6982 92.0975 28.6923C92.2376 28.6864 94.1913 29.7628 96.4391 31.0841ZM69.0868 48.8082C73.5031 51.5524 73.7266 51.7531 73.8357 53.0717C73.949 54.4393 73.9044 54.4844 70.0605 56.9177C67.921 58.272 65.6581 59.6941 65.031 60.0774L63.8916 60.7751L59.5569 58.2014C57.1732 56.786 54.9254 55.3585 54.5618 55.0292C53.7297 54.2747 53.7063 52.4653 54.5195 51.7578C55.5717 50.8426 63.5013 45.9849 63.9902 45.9559C64.2443 45.9406 66.5377 47.2243 69.0868 48.8082Z" fill="url(#paint1_linear_91_3466)"/>
</g>
<defs>
<linearGradient id="paint0_linear_91_3466" x1="64" y1="6" x2="64" y2="122" gradientUnits="userSpaceOnUse">
<stop stop-color="#444444"/>
<stop offset="1" stop-color="#151616"/>
</linearGradient>
<linearGradient id="paint1_linear_91_3466" x1="64" y1="24" x2="64" y2="108" gradientUnits="userSpaceOnUse">
<stop stop-color="#444444"/>
<stop offset="1" stop-color="#151616"/>
</linearGradient>
<clipPath id="clip0_91_3466">
<rect width="128" height="128" fill="white"/>
</clipPath>
</defs>
</svg>
