<svg width="88" height="85" viewBox="0 0 88 85" fill="none" xmlns="http://www.w3.org/2000/svg">
<path fill-rule="evenodd" clip-rule="evenodd" d="M6.92135 4.1275L0 8.17233V32.6075V57.0422L7.46517 61.5581C11.6836 64.1103 15.1795 65.9782 15.5034 65.8541C16.8916 65.3213 27.4876 58.8496 27.4876 58.5344C27.4876 58.3422 24.7737 56.5391 21.4562 54.5276C18.1391 52.5164 14.8461 50.4456 14.1393 49.9255L12.8539 48.9802V41.6835C12.8539 37.6703 12.9279 34.3868 13.0185 34.3868C13.7161 34.3868 28.3605 43.4491 29.3714 44.5066C30.0814 45.249 30.7605 45.8565 30.8807 45.8565C31.0009 45.8565 32.6079 44.9654 34.4521 43.8758C39.3955 40.9562 42.5275 39.4481 43.1512 39.6874C43.6148 39.865 43.7034 43.5131 43.7034 62.4183C43.7034 83.6755 43.7421 84.9265 44.3955 84.743C44.7764 84.6362 48.1133 82.7259 51.8112 80.4977L58.5348 76.4465L58.7326 59.8661L58.9303 43.2857L66.2472 38.8568C70.2715 36.4209 73.6977 34.4185 73.8607 34.4074C74.0236 34.3959 74.1573 41.328 74.1573 49.8116C74.1573 58.2952 74.236 65.2363 74.3325 65.2363C74.6299 65.2363 86.5734 57.6805 87.3079 57.028C87.9525 56.4549 88 54.7811 88 32.6071C88 10.4322 87.9525 8.75966 87.3079 8.18934C86.927 7.85237 83.7274 5.87207 80.1975 3.78855L73.7792 0L66.3548 4.28253C60.3201 7.76298 51.197 13.1205 44.848 16.9114C43.8335 17.5173 43.5922 17.3951 29.621 9.19907C21.8129 4.61872 15.0688 0.693717 14.6337 0.47698C13.9791 0.151084 12.6502 0.779937 6.92135 4.1275ZM26.8307 12.0376C33.5005 15.9511 38.9573 19.2639 38.9573 19.3988C38.9573 19.534 36.6946 20.959 33.9288 22.566C31.1635 24.1733 28.3048 25.8408 27.5762 26.2719C26.3482 26.9988 26.1742 27.0107 25.1886 26.4352C24.604 26.0939 19.7654 23.2886 14.436 20.2008C9.10652 17.1131 4.42571 14.2058 4.03416 13.7399C2.52056 11.9391 3.15139 11.1691 8.88227 7.82192C11.8098 6.11175 14.3173 4.75991 14.4545 4.81726C14.5918 4.87461 20.1613 8.12369 26.8307 12.0376ZM77.9838 7.14797C80.3387 8.48122 82.7548 9.91691 83.3528 10.3389C84.9044 11.4329 84.7715 12.7036 82.9573 14.1247C81.1633 15.5291 62.0082 26.8722 61.4299 26.8722C60.7129 26.8722 48.86 19.6535 49.0561 19.3363C49.1594 19.1686 53.6484 16.4099 59.0312 13.2059C64.414 10.0019 69.7969 6.78767 70.9933 6.06271C72.1897 5.33814 73.2888 4.74053 73.4355 4.7346C73.5822 4.72867 75.629 5.81472 77.9838 7.14797ZM49.329 25.0319C53.9557 27.8009 54.1898 28.0034 54.3041 29.3339C54.4228 30.7138 54.3761 30.7593 50.349 33.2146C48.1077 34.581 45.7371 36.0159 45.0801 36.4027L43.8865 37.1067L39.3453 34.5098C36.8481 33.0817 34.4932 31.6412 34.1124 31.309C33.2407 30.5477 33.2161 28.722 34.0681 28.0081C35.1703 27.0846 43.4775 22.1831 43.9897 22.1539C44.2559 22.1384 46.6586 23.4337 49.329 25.0319Z" fill="#2C2C2C"/>
</svg>
