<svg width="72" height="72" viewBox="0 0 72 72" fill="none" xmlns="http://www.w3.org/2000/svg">
<path fill-rule="evenodd" clip-rule="evenodd" d="M45.9421 3.45737C47.273 2.84142 48.9025 3.08202 49.9998 4.17926L67.8156 21.9951C68.7431 22.9226 69.0585 24.2305 68.7618 25.4169C68.4639 26.6596 67.5123 27.7043 66.1912 28.0584L60.1409 29.6801L51.2834 38.5375L47.8078 51.5047C47.7598 51.6838 47.6991 51.8561 47.6269 52.0209C47.4519 52.4242 47.1994 52.802 46.8696 53.1318L42.7713 57.2302C41.3654 58.6361 39.0862 58.6363 37.6806 57.2306L28.7675 48.3176L18.1779 58.9072C16.772 60.3131 14.4928 60.3133 13.0872 58.9077C11.6815 57.502 11.6817 55.2229 13.0876 53.817L23.6773 43.2273L14.7694 34.3194C13.4955 33.0456 13.3763 31.0543 14.4115 29.6457C14.5186 29.5 14.638 29.3605 14.7698 29.2287L18.8682 25.1304C19.198 24.8005 19.5759 24.5481 19.9793 24.373C20.1441 24.3009 20.3163 24.2402 20.4953 24.1922L33.4625 20.7166L42.3199 11.8591L43.9416 5.80881C44.2328 4.72251 44.9909 3.88598 45.9421 3.45737ZM58.3462 22.708L57.3743 22.9685C56.9964 23.0698 56.6488 23.2276 56.338 23.4303C56.1131 23.5716 55.9004 23.7401 55.7047 23.9358L45.5224 34.1181C45.2132 34.4273 44.9721 34.7786 44.7989 35.1537C44.7062 35.3487 44.6298 35.5549 44.5719 35.7709L41.1011 48.7199L40.2266 49.5944L22.4056 31.7734L23.2801 30.8989L36.2291 27.4281C36.4451 27.3702 36.6513 27.2938 36.8464 27.2011C37.2214 27.0279 37.5727 26.7868 37.8819 26.4776L48.0642 16.2953C48.2599 16.0996 48.4284 15.8869 48.5696 15.662C48.7724 15.3513 48.9302 15.0036 49.0315 14.6257L49.292 13.6538L58.3462 22.708Z" fill="#2C2C2C"/>
</svg>
