<svg width="88" height="88" viewBox="0 0 88 88" fill="none" xmlns="http://www.w3.org/2000/svg">
<path d="M44 28.6C40.3549 28.6 37.4 25.6451 37.4 22V8.80001C37.4 5.15493 40.3549 2.2 44 2.2C47.6451 2.2 50.6 5.15493 50.6 8.80001V22C50.6 25.6451 47.6451 28.6 44 28.6Z" fill="#2C2C2C"/>
<path d="M57.2 44C57.2 51.2902 51.2902 57.2 44 57.2C36.7098 57.2 30.8 51.2902 30.8 44C30.8 36.7099 36.7098 30.8 44 30.8C51.2902 30.8 57.2 36.7099 57.2 44Z" fill="#2C2C2C"/>
<path d="M59.4 44C59.4 40.3549 62.3549 37.4 66 37.4H79.2C82.8451 37.4 85.8 40.3549 85.8 44C85.8 47.6451 82.8451 50.6 79.2 50.6H66C62.3549 50.6 59.4 47.6451 59.4 44Z" fill="#2C2C2C"/>
<path d="M8.8 37.4C5.15492 37.4 2.2 40.3549 2.2 44C2.2 47.6451 5.15492 50.6 8.8 50.6H22C25.6451 50.6 28.6 47.6451 28.6 44C28.6 40.3549 25.6451 37.4 22 37.4H8.8Z" fill="#2C2C2C"/>
<path d="M37.4 79.2C37.4 82.8451 40.3549 85.8 44 85.8C47.6451 85.8 50.6 82.8451 50.6 79.2V66C50.6 62.3549 47.6451 59.4 44 59.4C40.3549 59.4 37.4 62.3549 37.4 66V79.2Z" fill="#2C2C2C"/>
<path d="M59.5555 28.4492C58.2667 27.1605 58.2667 25.071 59.5555 23.7823L70.4449 12.8928C71.7336 11.6041 73.8231 11.6041 75.1118 12.8928C76.4005 14.1816 76.4005 16.271 75.1118 17.5597L64.2224 28.4492C62.9336 29.7379 60.8442 29.7379 59.5555 28.4492Z" fill="#2C2C2C"/>
<path d="M12.8935 70.423C11.6047 71.7117 11.6047 73.8011 12.8935 75.0899C14.1822 76.3786 16.2716 76.3786 17.5604 75.0899L28.4498 64.2004C29.7385 62.9117 29.7385 60.8223 28.4498 59.5335C27.1611 58.2448 25.0716 58.2448 23.7829 59.5335L12.8935 70.423Z" fill="#2C2C2C"/>
<path d="M12.8933 12.8928C14.182 11.604 16.2715 11.604 17.5602 12.8928L28.4496 23.7822C29.7384 25.0709 29.7384 27.1604 28.4496 28.4491C27.1609 29.7379 25.0715 29.7379 23.7827 28.4491L12.8933 17.5597C11.6046 16.2709 11.6046 14.1815 12.8933 12.8928Z" fill="#2C2C2C"/>
<path d="M64.2002 59.5335C62.9115 58.2447 60.822 58.2447 59.5333 59.5335C58.2446 60.8222 58.2446 62.9116 59.5333 64.2004L70.4227 75.0898C71.7115 76.3785 73.8009 76.3785 75.0897 75.0898C76.3784 73.8011 76.3784 71.7116 75.0897 70.4229L64.2002 59.5335Z" fill="#2C2C2C"/>
</svg>
