<svg width="72" height="72" viewBox="0 0 72 72" fill="none" xmlns="http://www.w3.org/2000/svg">
<path d="M26.3011 26.0468L19.3394 38.1049C19.2676 38.2292 19.1895 38.3477 19.1057 38.4601C18.4507 39.354 17.3931 39.9344 16.2 39.9344H5.4C3.41177 39.9344 1.8 38.3226 1.8 36.3344C1.8 34.3463 3.41177 32.7344 5.4 32.7344H14.1262L23.1694 17.071C23.6507 16.2374 24.4149 15.6691 25.2707 15.4174C26.8353 14.9437 28.5763 15.5877 29.429 17.0646L46.0975 45.9353L52.6673 34.5562C52.7146 34.4742 52.7647 34.3948 52.8173 34.318C53.4645 33.3623 54.5588 32.7344 55.8 32.7344H66.6C68.5882 32.7344 70.2 34.3463 70.2 36.3344C70.2 38.3226 68.5882 39.9344 66.6 39.9344H57.876L49.2392 54.8938C48.9312 55.4272 48.507 55.8522 48.0174 56.1549C47.9745 56.1821 47.9309 56.2085 47.8866 56.2341C46.1647 57.2282 43.963 56.6383 42.9689 54.9165L26.3011 26.0468Z" fill="#2C2C2C"/>
</svg>
