<svg width="102" height="120" viewBox="0 0 102 120" fill="none" xmlns="http://www.w3.org/2000/svg">
<path fill-rule="evenodd" clip-rule="evenodd" d="M53.3574 4.25C55.1874 11.476 59.7364 17.178 73.4634 29.451C88.4964 42.891 93.5024 48.736 97.9194 58C100.775 63.99 101.018 65.324 101.018 75C101.018 84.69 100.778 86.002 97.9084 92C92.2574 103.808 82.5514 112.209 68.8384 117.161C56.9604 121.45 35.3054 119.558 24.5434 113.291C8.70837 104.07 -2.54263 81.943 0.497367 66C2.68937 54.508 8.76437 45.988 25.6054 30.789C39.2464 18.479 44.8894 11.977 47.4844 5.584C48.7304 2.513 50.3204 0 51.0154 0C51.7114 0 52.7654 1.913 53.3574 4.25ZM51.1194 43.951C50.3044 50.092 51.3684 57.644 52.6034 54.483C53.6584 51.782 53.6854 41.812 52.6434 40.167C52.0884 39.292 51.5644 40.592 51.1194 43.951ZM74.6464 49.75C76.3444 51.916 77.7374 52.965 78.9424 52.985C79.4514 52.993 78.8104 51.875 77.5184 50.5C74.8624 47.672 72.5414 47.067 74.6464 49.75ZM12.5754 52.588C8.61537 57.098 8.50837 60 12.3024 60C14.3154 60 15.5624 59.195 16.8024 57.096C20.7294 50.449 17.4874 46.993 12.5754 52.588ZM31.0034 53.024C29.6034 55.289 31.8734 59.95 36.5644 64.447C39.2894 67.058 41.5184 69.539 41.5184 69.96C41.5184 70.382 39.2444 70.314 36.4654 69.809C33.6864 69.303 29.5234 69.027 27.2154 69.195C23.2864 69.481 23.0184 69.692 23.0184 72.5V75.5L29.5184 75.185C33.0934 75.012 37.0744 75.263 38.3654 75.743C40.6244 76.583 40.5044 76.784 35.1954 81.058C32.1604 83.501 29.1304 86.484 28.4624 87.686C27.4074 89.587 27.0604 89.685 25.8124 88.436C24.4674 87.092 23.0364 86.602 21.2684 86.882C20.8554 86.947 20.5184 86.475 20.5184 85.833C20.5184 85.192 20.2394 84.945 19.8994 85.286C18.9044 86.281 16.7304 83.546 15.6074 79.885C14.6284 76.695 14.6034 76.759 15.1644 81C16.3774 90.158 23.9284 100.594 32.1744 104.507C37.5604 107.063 44.9164 106.914 47.8154 104.191C50.7864 101.399 51.3204 101.436 54.6924 104.667C62.3204 111.974 80.5834 103.011 87.0974 88.762C90.9124 80.417 91.0844 71.714 87.5744 64.553C86.2404 61.833 84.9784 60.12 84.7694 60.747C84.5604 61.374 83.7494 61.642 82.9674 61.342C82.0714 60.998 81.1804 61.758 80.5574 63.398C79.3174 66.659 77.1264 66.715 74.3784 63.554L72.2514 61.108L70.2984 63.304C68.5944 65.22 68.6114 65.097 70.4314 62.346C73.8184 57.226 72.7684 52 68.3534 52C65.9144 52 59.7554 57.596 56.2454 63C54.6384 65.475 53.5824 66.6 53.8984 65.5C54.2144 64.4 54.0404 62.825 53.5104 62C52.7374 60.794 52.5464 60.95 52.5334 62.794C52.5084 66.579 49.5114 65.058 43.5824 58.25C38.9934 52.981 37.6294 52 34.8874 52C33.0994 52 31.3514 52.461 31.0034 53.024ZM78.6014 54.261C78.8314 54.404 80.0944 55.417 81.4104 56.511L83.8014 58.5L82.4194 56.25C81.6594 55.013 80.3954 54 79.6114 54C78.8264 54 78.3724 54.117 78.6014 54.261ZM73.5184 60C73.5184 60.55 73.9954 61 74.5774 61C75.1594 61 75.3584 60.55 75.0184 60C74.6784 59.45 74.2024 59 73.9594 59C73.7164 59 73.5184 59.45 73.5184 60ZM53.1934 77.658C52.8314 78.02 52.9564 78.822 53.4694 79.442C54.8464 81.1 53.2144 83.062 50.1904 83.385C48.7354 83.54 46.5884 84.529 45.4204 85.583C43.8804 86.973 44.1934 86.057 46.5574 82.25C48.7434 78.729 50.4814 77 51.8344 77C52.9444 77 53.5554 77.296 53.1934 77.658Z" fill="#4E008C"/>
</svg>
