<svg width="75" height="88" viewBox="0 0 75 88" fill="none" xmlns="http://www.w3.org/2000/svg">
<path fill-rule="evenodd" clip-rule="evenodd" d="M39.3007 3.13036C40.6486 8.45272 43.9992 12.6526 54.1099 21.6923C65.1825 31.5916 68.8697 35.8968 72.1231 42.7203C74.2267 47.1322 74.4057 48.1148 74.4057 55.2417C74.4057 62.3789 74.2289 63.3453 72.115 67.7632C67.9527 76.4604 60.8037 82.6482 50.7033 86.2957C41.9545 89.4548 26.0044 88.0612 18.0776 83.4452C6.4142 76.6534 -1.87279 60.3556 0.366339 48.6127C1.98087 40.1482 6.45545 33.8727 18.8598 22.6778C28.9072 13.6108 33.0635 8.82173 34.9749 4.11293C35.8927 1.85097 37.0638 0 37.5757 0C38.0883 0 38.8647 1.40903 39.3007 3.13036ZM37.6523 32.3724C37.052 36.8956 37.8357 42.458 38.7453 40.1298C39.5224 38.1404 39.5423 30.7969 38.7748 29.5853C38.366 28.9408 37.9801 29.8983 37.6523 32.3724ZM54.9812 36.6437C56.2319 38.2391 57.2579 39.0117 58.1455 39.0264C58.5204 39.0323 58.0483 38.2089 57.0966 37.1961C55.1403 35.1131 53.4308 34.6675 54.9812 36.6437ZM9.26246 38.734C6.3457 42.0559 6.26689 44.1934 9.06139 44.1934C10.5441 44.1934 11.4626 43.6004 12.3759 42.0544C15.2683 37.1585 12.8804 34.613 9.26246 38.734ZM22.8357 39.0552C21.8045 40.7235 23.4765 44.1565 26.9317 47.4688C28.9388 49.392 30.5806 51.2194 30.5806 51.5295C30.5806 51.8403 28.9057 51.7902 26.8588 51.4183C24.8119 51.0456 21.7456 50.8423 20.0456 50.966C17.1517 51.1767 16.9543 51.3321 16.9543 53.4003V55.61L21.7419 55.378C24.3751 55.2506 27.3074 55.4354 28.2583 55.789C29.9221 56.4077 29.8337 56.5557 25.9234 59.7038C23.6879 61.5032 21.4562 63.7003 20.9641 64.5857C20.1871 65.9859 19.9315 66.058 19.0123 65.1381C18.0216 64.1482 16.9676 63.7872 15.6653 63.9935C15.3611 64.0414 15.1129 63.6937 15.1129 63.2208C15.1129 62.7487 14.9074 62.5668 14.657 62.8179C13.9241 63.5508 12.3229 61.5363 11.4957 58.8398C10.7746 56.4902 10.7562 56.5373 11.1694 59.6611C12.0629 66.4064 17.6246 74.0931 23.6982 76.9753C27.6653 78.8579 33.0834 78.7482 35.2187 76.7425C37.407 74.6861 37.8003 74.7133 40.284 77.0931C45.9025 82.4752 59.3542 75.8734 64.1521 65.3782C66.9621 59.2316 67.0888 52.8214 64.5034 47.5469C63.5209 45.5435 62.5913 44.2818 62.4374 44.7436C62.2835 45.2054 61.6861 45.4028 61.1101 45.1818C60.4502 44.9285 59.7939 45.4882 59.335 46.6962C58.4217 49.0981 56.8079 49.1393 54.7838 46.8111L53.2172 45.0095L51.7787 46.627C50.5236 48.0382 50.5361 47.9476 51.8767 45.9213C54.3714 42.1502 53.598 38.3009 50.3461 38.3009C48.5496 38.3009 44.0132 42.4227 41.4279 46.403C40.2442 48.226 39.4664 49.0546 39.6992 48.2444C39.9319 47.4342 39.8038 46.2741 39.4134 45.6665C38.844 44.7782 38.7034 44.8931 38.6938 46.2513C38.6754 49.0392 36.4679 47.9189 32.1009 42.9044C28.7208 39.0235 27.7161 38.3009 25.6965 38.3009C24.3795 38.3009 23.092 38.6405 22.8357 39.0552ZM57.8943 39.9663C58.0637 40.0716 58.994 40.8177 59.9633 41.6235L61.7244 43.0885L60.7065 41.4313C60.1467 40.5202 59.2157 39.774 58.6382 39.774C58.0601 39.774 57.7257 39.8602 57.8943 39.9663ZM54.1504 44.1934C54.1504 44.5985 54.5017 44.9299 54.9304 44.9299C55.3591 44.9299 55.5057 44.5985 55.2552 44.1934C55.0048 43.7883 54.6542 43.4568 54.4752 43.4568C54.2962 43.4568 54.1504 43.7883 54.1504 44.1934ZM39.1799 57.1995C38.9133 57.4661 39.0053 58.0568 39.3832 58.5135C40.3974 59.7347 39.1954 61.1798 36.968 61.4177C35.8963 61.5319 34.315 62.2604 33.4547 63.0367C32.3204 64.0605 32.5509 63.3858 34.2921 60.5818C35.9022 57.9883 37.1824 56.7148 38.1789 56.7148C38.9965 56.7148 39.4465 56.9328 39.1799 57.1995Z" fill="#2C2C2C"/>
</svg>
