<svg width="192" height="192" viewBox="0 0 192 192" fill="none" xmlns="http://www.w3.org/2000/svg">
<g clip-path="url(#clip0_2_39)">
<rect width="192" height="192" fill="url(#paint0_linear_2_39)"/>
<mask id="mask0_2_39" style="mask-type:alpha" maskUnits="userSpaceOnUse" x="0" y="0" width="192" height="192">
<path fill-rule="evenodd" clip-rule="evenodd" d="M48 76.8V67.2C48 60.8966 49.2416 54.6548 51.6538 48.8312C54.066 43.0076 57.6017 37.7161 62.0589 33.2589C66.5161 28.8017 71.8076 25.266 77.6312 22.8538C83.4548 20.4416 89.6966 19.2 96 19.2C102.303 19.2 108.545 20.4416 114.369 22.8538C120.192 25.266 125.484 28.8017 129.941 33.2589C134.398 37.7161 137.934 43.0076 140.346 48.8312C142.758 54.6548 144 60.8966 144 67.2V76.8H163.2C168.502 76.8 172.8 81.0981 172.8 86.4V163.2C172.8 168.502 168.502 172.8 163.2 172.8H28.8C23.4981 172.8 19.2 168.502 19.2 163.2V86.4C19.2 81.0981 23.4981 76.8 28.8 76.8H48ZM84.9787 40.5923C88.4729 39.1449 92.2179 38.4 96 38.4C99.7821 38.4 103.527 39.1449 107.021 40.5923C110.515 42.0396 113.69 44.161 116.365 46.8353C119.039 49.5097 121.16 52.6846 122.608 56.1787C124.055 59.6729 124.8 63.4179 124.8 67.2V76.8H67.2V67.2C67.2 63.4179 67.9449 59.6729 69.3923 56.1787C70.8396 52.6846 72.961 49.5097 75.6353 46.8353C78.3097 44.161 81.4845 42.0396 84.9787 40.5923ZM87.4667 118.933C87.4667 114.221 91.2872 110.4 96 110.4C100.713 110.4 104.533 114.221 104.533 118.933V130.667C104.533 135.38 100.713 139.2 96 139.2C91.2872 139.2 87.4667 135.38 87.4667 130.667V118.933Z" fill="white"/>
</mask>
<g mask="url(#mask0_2_39)">
<path d="M0 0H192V192H0V0Z" fill="#3E8287"/>
<path d="M32 32H160V160H32V32Z" fill="#19676C"/>
<path d="M56 56H136V136H56V56Z" fill="#114E52"/>
<path d="M72 72H120V120H72V72Z" fill="#0A3A3E"/>
<path d="M80 80H112V112H80V80Z" fill="#03262A"/>
</g>
</g>
<defs>
<linearGradient id="paint0_linear_2_39" x1="182.5" y1="6.65554e-06" x2="-5.43892e-06" y2="192" gradientUnits="userSpaceOnUse">
<stop stop-color="#C2E2E4"/>
<stop offset="1" stop-color="#A2C8CB"/>
</linearGradient>
<clipPath id="clip0_2_39">
<rect width="192" height="192" rx="24" fill="white"/>
</clipPath>
</defs>
</svg>
