<svg width="88" height="88" viewBox="0 0 88 88" fill="none" xmlns="http://www.w3.org/2000/svg">
<path d="M44 50.6C41.5699 50.6 39.6 52.5699 39.6 55V59.4C39.6 61.8301 41.5699 63.8 44 63.8C46.43 63.8 48.4 61.8301 48.4 59.4V55C48.4 52.5699 46.43 50.6 44 50.6Z" fill="#2C2C2C"/>
<path fill-rule="evenodd" clip-rule="evenodd" d="M74.8 35.2H66V30.8C66 27.9109 65.4309 25.0501 64.3253 22.381C63.2197 19.7118 61.5992 17.2865 59.5563 15.2437C57.5134 13.2008 55.0882 11.5803 52.419 10.4747C49.7499 9.36905 46.8891 8.8 44 8.8C41.1109 8.8 38.2501 9.36905 35.5809 10.4747C32.9118 11.5803 30.4865 13.2008 28.4436 15.2437C26.4007 17.2865 24.7802 19.7118 23.6746 22.381C22.569 25.0501 22 27.9109 22 30.8V35.2H13.2C10.7699 35.2 8.79999 37.1699 8.79999 39.6V74.8C8.79999 77.2301 10.7699 79.2 13.2 79.2H74.8C77.23 79.2 79.2 77.2301 79.2 74.8V39.6C79.2 37.1699 77.23 35.2 74.8 35.2ZM44 17.6C42.2665 17.6 40.5501 17.9414 38.9486 18.6048C37.3471 19.2682 35.8919 20.2405 34.6662 21.4662C33.4404 22.6919 32.4681 24.1471 31.8048 25.7486C31.1414 27.3501 30.8 29.0666 30.8 30.8V35.2H57.2V30.8C57.2 29.0666 56.8586 27.3501 56.1952 25.7486C55.5318 24.1471 54.5595 22.6919 53.3338 21.4662C52.1081 20.2405 50.6529 19.2682 49.0514 18.6048C47.4499 17.9414 45.7334 17.6 44 17.6ZM17.6 44V70.4H70.4V44H17.6Z" fill="#2C2C2C"/>
</svg>
