<svg width="72" height="72" viewBox="0 0 72 72" fill="none" xmlns="http://www.w3.org/2000/svg">
<path d="M0 36.0001C0 34.0119 1.61177 32.4001 3.6 32.4001H68.4C70.3882 32.4001 72 34.0119 72 36.0001C72 37.9883 70.3882 39.6001 68.4 39.6001H3.6C1.61178 39.6001 0 37.9883 0 36.0001Z" fill="#2C2C2C"/>
<path d="M32.3809 16.0657L23.8669 6.93564C22.511 5.48155 20.233 5.402 18.7789 6.75796C17.3248 8.11393 17.2452 10.3919 18.6012 11.846L33.3324 27.6433C33.4901 27.8124 33.6603 27.963 33.8403 28.0948C34.4386 28.538 35.1791 28.8001 35.9809 28.8001C36.9678 28.8001 37.862 28.403 38.5123 27.7598C38.5508 27.722 38.5887 27.6831 38.6259 27.6432L53.3571 11.846C54.713 10.3919 54.6335 8.1139 53.1794 6.75793C51.7253 5.40196 49.4473 5.48151 48.0913 6.93561L39.5809 16.062V5.40011C39.5809 3.41189 37.9691 1.80011 35.9809 1.80011C33.9926 1.80011 32.3809 3.41189 32.3809 5.40011V16.0657Z" fill="#2C2C2C"/>
<path d="M36.0096 70.2001C34.0213 70.2001 32.4096 68.5883 32.4096 66.6001V55.9285L23.8727 65.0832C22.5167 66.5373 20.2387 66.6168 18.7846 65.2608C17.3305 63.9049 17.251 61.6269 18.6069 60.1728L33.3381 44.3755C33.4753 44.2284 33.6219 44.0954 33.7761 43.9765C34.3899 43.4904 35.1658 43.2001 36.0096 43.2001C37.1526 43.2001 38.1712 43.7328 38.8307 44.5635L53.3665 60.1512C54.7224 61.6053 54.6429 63.8833 53.1888 65.2393C51.7347 66.5953 49.4567 66.5157 48.1007 65.0616L39.6096 55.956V66.6001C39.6096 68.5883 37.9978 70.2001 36.0096 70.2001Z" fill="#2C2C2C"/>
</svg>
