<svg width="88" height="88" viewBox="0 0 88 88" fill="none" xmlns="http://www.w3.org/2000/svg">
<mask id="mask0_358_10396" style="mask-type:alpha" maskUnits="userSpaceOnUse" x="0" y="0" width="88" height="88">
<rect width="88" height="88" fill="#D9D9D9"/>
</mask>
<g mask="url(#mask0_358_10396)">
<path d="M29.3333 77V69.6667H36.6667V62.3333H14.6667C12.65 62.3333 10.9236 61.6153 9.4875 60.1792C8.05139 58.7431 7.33333 57.0167 7.33333 55V18.3333C7.33333 16.3167 8.05139 14.5903 9.4875 13.1542C10.9236 11.7181 12.65 11 14.6667 11H73.3333C75.35 11 77.0764 11.7181 78.5125 13.1542C79.9486 14.5903 80.6667 16.3167 80.6667 18.3333V55C80.6667 57.0167 79.9486 58.7431 78.5125 60.1792C77.0764 61.6153 75.35 62.3333 73.3333 62.3333H51.3333V69.6667H58.6667V77H29.3333ZM14.6667 55H73.3333V18.3333H14.6667V55Z" fill="#2C2C2C"/>
<path fill-rule="evenodd" clip-rule="evenodd" d="M43.9948 38.3C46.8115 38.3 49.0948 36.0166 49.0948 33.2C49.0948 30.3833 46.8115 28.1 43.9948 28.1C41.1782 28.1 38.8948 30.3833 38.8948 33.2C38.8948 36.0166 41.1782 38.3 43.9948 38.3ZM43.9948 41.7C48.6892 41.7 52.4948 37.8944 52.4948 33.2C52.4948 28.5056 48.6892 24.7 43.9948 24.7C39.3004 24.7 35.4948 28.5056 35.4948 33.2C35.4948 37.8944 39.3004 41.7 43.9948 41.7Z" fill="#2C2C2C"/>
<path fill-rule="evenodd" clip-rule="evenodd" d="M55.402 55.3C53.9391 50.3845 49.3856 46.8 43.9948 46.8C38.6041 46.8 34.0506 50.3845 32.5876 55.3H29.074C30.62 48.4864 36.7134 43.4 43.9948 43.4C51.2762 43.4 57.3696 48.4864 58.9157 55.3H55.402Z" fill="#2C2C2C"/>
</g>
</svg>
