<svg width="181" height="157" viewBox="0 0 181 157" fill="none" xmlns="http://www.w3.org/2000/svg">
<mask id="mask0_89_3466" style="mask-type:alpha" maskUnits="userSpaceOnUse" x="21" y="10" width="138" height="138">
<rect x="21" y="10" width="138" height="138" fill="#D9D9D9"/>
</mask>
<g mask="url(#mask0_89_3466)">
<path d="M67 130.75V119.25H78.5V107.75H44C40.8375 107.75 38.1302 106.624 35.8781 104.372C33.626 102.12 32.5 99.4125 32.5 96.25V38.75C32.5 35.5875 33.626 32.8802 35.8781 30.6281C38.1302 28.376 40.8375 27.25 44 27.25H136C139.163 27.25 141.87 28.376 144.122 30.6281C146.374 32.8802 147.5 35.5875 147.5 38.75V96.25C147.5 99.4125 146.374 102.12 144.122 104.372C141.87 106.624 139.163 107.75 136 107.75H101.5V119.25H113V130.75H67ZM44 96.25H136V38.75H44V96.25Z" fill="#1C1B1F"/>
</g>
<path fill-rule="evenodd" clip-rule="evenodd" d="M89.9924 72.5C94.1345 72.5 97.4924 69.1421 97.4924 65C97.4924 60.8579 94.1345 57.5 89.9924 57.5C85.8503 57.5 82.4924 60.8579 82.4924 65C82.4924 69.1421 85.8503 72.5 89.9924 72.5ZM89.9924 77.5C96.8959 77.5 102.492 71.9036 102.492 65C102.492 58.0964 96.8959 52.5 89.9924 52.5C83.0888 52.5 77.4924 58.0964 77.4924 65C77.4924 71.9036 83.0888 77.5 89.9924 77.5Z" fill="#151618"/>
<path fill-rule="evenodd" clip-rule="evenodd" d="M106.768 97.5C104.616 90.2713 97.9199 85 89.9924 85C82.0648 85 75.3685 90.2713 73.2171 97.5H68.0499C70.3236 87.4801 79.2844 80 89.9924 80C100.7 80 109.661 87.4801 111.935 97.5H106.768Z" fill="#151618"/>
</svg>
