<svg width="88" height="88" viewBox="0 0 88 88" fill="none" xmlns="http://www.w3.org/2000/svg">
<path d="M44 52.8C48.8601 52.8 52.8 48.8601 52.8 44C52.8 39.1399 48.8601 35.2 44 35.2C39.1399 35.2 35.2 39.1399 35.2 44C35.2 48.8601 39.1399 52.8 44 52.8Z" fill="#2C2C2C"/>
<path fill-rule="evenodd" clip-rule="evenodd" d="M48.4 74.4881C61.889 72.5586 72.5586 61.889 74.4881 48.4H83.6C86.0301 48.4 88 46.4301 88 44C88 41.5699 86.0301 39.6 83.6 39.6H74.4881C72.5586 26.111 61.889 15.4414 48.4 13.5119V4.4C48.4 1.96995 46.4301 0 44 0C41.5699 0 39.6 1.96995 39.6 4.4V13.5119C26.111 15.4414 15.4414 26.111 13.5119 39.6H4.4C1.96995 39.6 0 41.5699 0 44C0 46.4301 1.96995 48.4 4.4 48.4H13.5119C15.4414 61.889 26.111 72.5586 39.6 74.4881V83.6C39.6 86.0301 41.5699 88 44 88C46.4301 88 48.4 86.0301 48.4 83.6V74.4881ZM22 44C22 31.8497 31.8497 22 44 22C56.1503 22 66 31.8497 66 44C66 56.1503 56.1503 66 44 66C31.8497 66 22 56.1503 22 44Z" fill="#2C2C2C"/>
</svg>
