<svg width="90" height="90" viewBox="0 0 90 90" fill="none" xmlns="http://www.w3.org/2000/svg">
<rect width="90" height="90" rx="16.875" fill="#FF6633"/>
<path fill-rule="evenodd" clip-rule="evenodd" d="M35.2702 19.4759L35.268 19.4736L38.7704 15.9712C40.8804 13.8612 44.3013 13.8612 46.4113 15.9712C49.5762 19.1362 49.5762 24.2676 46.4113 27.4325L44.8191 29.0247L44.8169 29.0225L40.6357 33.2037L40.6346 33.2025C40.5183 33.3201 40.4391 33.4692 40.4069 33.6314C40.3743 33.7952 40.391 33.9649 40.4549 34.1192C40.5188 34.2734 40.627 34.4053 40.7658 34.4981C40.9047 34.5908 41.0679 34.6403 41.2348 34.6403V34.6404H53.4252C56.6889 34.6404 59.3346 37.2861 59.3346 40.5498C59.3346 41.4562 59.1306 42.3149 58.7659 43.0825H70.3093C73.573 43.0825 76.2187 45.7282 76.2187 48.9919C76.2187 51.621 74.5019 53.8491 72.1281 54.6161C72.5833 55.4537 72.8419 56.4136 72.8419 57.434C72.8419 60.6976 70.1962 63.3434 66.9325 63.3434H59.5412L61.8748 63.9687C65.0272 64.8134 66.8981 68.0537 66.0534 71.2062C65.2087 74.3587 61.9683 76.2295 58.8158 75.3848L45.3827 71.7854H30.6654C21.3406 71.7854 13.7813 64.2262 13.7813 54.9013V52.1542H13.7812C13.7812 44.9895 16.6274 38.1182 21.6936 33.052L21.6939 33.0522L35.2702 19.4759ZM24.0041 35.5174C19.6246 39.9376 17.1638 45.9076 17.1581 52.1323H17.1581V54.9013C17.1581 62.3612 23.2055 68.4086 30.6654 68.4086H45.8273L59.6898 72.1231C61.0409 72.4851 62.4296 71.6833 62.7916 70.3322C63.1536 68.9812 62.3518 67.5924 61.0008 67.2304L51.8331 64.774L51.8324 64.7764L46.4844 63.3434H45.8273C44.8948 63.3434 44.1389 62.5875 44.1389 61.655C44.1389 60.7225 44.8948 59.9666 45.8273 59.9666H66.9325C68.3312 59.9666 69.4651 58.8327 69.4651 57.434C69.4651 56.0352 68.3312 54.9013 66.9325 54.9013H45.8273C44.8948 54.9013 44.1389 54.1454 44.1389 53.2129C44.1389 52.2804 44.8948 51.5245 45.8273 51.5245H70.3093C71.708 51.5245 72.8419 50.3906 72.8419 48.9919C72.8419 47.5932 71.708 46.4593 70.3093 46.4593H45.8273C44.8948 46.4593 44.1389 45.7034 44.1389 44.7709C44.1389 43.8384 44.8948 43.0825 45.8273 43.0825H53.4252C54.8239 43.0825 55.9578 41.9486 55.9578 40.5498C55.9578 39.1511 54.8239 38.0172 53.4252 38.0172H41.2011V38.017C40.378 38.0104 39.5746 37.7633 38.8898 37.3058C38.1956 36.842 37.6546 36.1827 37.3351 35.4114C37.0156 34.6401 36.9321 33.7914 37.0949 32.9726C37.2578 32.1538 37.6598 31.4017 38.2501 30.8114L38.2513 30.8126L42.4603 26.6036L42.4625 26.6058L44.0235 25.0447C45.8697 23.1985 45.8697 20.2052 44.0235 18.359C43.2323 17.5677 41.9494 17.5677 41.1582 18.359L37.7458 21.7714L37.748 21.7737L24.0042 35.5175L24.0041 35.5174Z" fill="#303B44"/>
</svg>
