<svg width="88" height="88" viewBox="0 0 88 88" fill="none" xmlns="http://www.w3.org/2000/svg">
<path fill-rule="evenodd" clip-rule="evenodd" d="M31.3153 10.7242L31.3124 10.7212L35.8785 6.15512C38.6293 3.40435 43.0892 3.40435 45.84 6.15512C49.9661 10.2813 49.9661 16.9711 45.84 21.0973L43.7642 23.173L43.7613 23.1701L38.3103 28.6211L38.3088 28.6196C38.1573 28.7729 38.054 28.9673 38.012 29.1788C37.9695 29.3923 37.9913 29.6136 38.0746 29.8147C38.1579 30.0158 38.299 30.1877 38.4799 30.3086C38.6609 30.4296 38.8737 30.4941 39.0914 30.4941V30.4942H54.984C59.2389 30.4942 62.6881 33.9435 62.6881 38.1984C62.6881 39.38 62.4221 40.4994 61.9467 41.5002H76.9959C81.2507 41.5002 84.7 44.9494 84.7 49.2043C84.7 52.6319 82.4617 55.5366 79.3671 56.5367C79.9605 57.6286 80.2976 58.8801 80.2976 60.2103C80.2976 64.4651 76.8484 67.9144 72.5935 67.9144H62.9575L65.9997 68.7296C70.1096 69.8308 72.5486 74.0553 71.4474 78.1652C70.3462 82.2751 66.1217 84.7141 62.0118 83.6129L44.499 78.9203H25.312C13.1552 78.9203 3.3001 69.0653 3.3001 56.9085V53.327H3.30002C3.30002 43.9863 7.01058 35.0282 13.6154 28.4234L13.6158 28.4237L31.3153 10.7242ZM16.6276 31.6376C10.9181 37.4002 7.70989 45.1833 7.70241 53.2985H7.70247V56.9085C7.70247 66.6339 15.5865 74.518 25.312 74.518H45.0786L63.1512 79.3605C64.9126 79.8325 66.7231 78.7872 67.195 77.0258C67.667 75.2644 66.6217 73.4539 64.8603 72.982L52.9084 69.7794L52.9075 69.7826L45.9353 67.9144H45.0786C43.863 67.9144 42.8774 66.9289 42.8774 65.7132C42.8774 64.4975 43.863 63.512 45.0786 63.512H72.5935C74.417 63.512 75.8953 62.0338 75.8953 60.2103C75.8953 58.3867 74.417 56.9085 72.5935 56.9085H45.0786C43.863 56.9085 42.8774 55.923 42.8774 54.7073C42.8774 53.4916 43.863 52.5061 45.0786 52.5061H76.9959C78.8194 52.5061 80.2976 51.0278 80.2976 49.2043C80.2976 47.3808 78.8194 45.9025 76.9959 45.9025H45.0786C43.863 45.9025 42.8774 44.917 42.8774 43.7013C42.8774 42.4857 43.863 41.5002 45.0786 41.5002H54.984C56.8075 41.5002 58.2858 40.0219 58.2858 38.1984C58.2858 36.3749 56.8075 34.8966 54.984 34.8966H39.0474V34.8963C37.9744 34.8877 36.9269 34.5656 36.0341 33.9691C35.1292 33.3644 34.4238 32.505 34.0073 31.4994C33.5908 30.4939 33.4818 29.3874 33.6942 28.32C33.9065 27.2525 34.4306 26.2719 35.2002 25.5023L35.2017 25.5038L40.689 20.0166L40.6919 20.0195L42.727 17.9843C45.1339 15.5774 45.1339 11.675 42.727 9.26807C41.6955 8.23653 40.023 8.23653 38.9915 9.26807L34.5427 13.7169L34.5456 13.7198L16.6277 31.6377L16.6276 31.6376Z" fill="#2C2C2C"/>
</svg>
