<svg width="88" height="88" viewBox="0 0 88 88" fill="none" xmlns="http://www.w3.org/2000/svg">
<path fill-rule="evenodd" clip-rule="evenodd" d="M61.6 76.0847C57.715 74.3873 55 70.5107 55 66C55 61.4893 57.715 57.6127 61.6 55.9153V8.8C61.6 6.36994 63.57 4.4 66 4.4C68.4301 4.4 70.4 6.36994 70.4 8.8V55.9153C74.285 57.6127 77 61.4893 77 66C77 70.5107 74.285 74.3873 70.4 76.0847V79.2C70.4 81.6301 68.4301 83.6 66 83.6C63.57 83.6 61.6 81.6301 61.6 79.2V76.0847ZM66 70.4C63.57 70.4 61.6 68.4301 61.6 66C61.6 63.5699 63.57 61.6 66 61.6C68.4301 61.6 70.4 63.5699 70.4 66C70.4 68.4301 68.4301 70.4 66 70.4Z" fill="#2C2C2C"/>
<path fill-rule="evenodd" clip-rule="evenodd" d="M39.6 32.0847C35.715 30.3873 33 26.5107 33 22C33 17.4893 35.715 13.6127 39.6 11.9153V8.8C39.6 6.36994 41.57 4.4 44 4.4C46.4301 4.4 48.4 6.36994 48.4 8.8V11.9153C52.285 13.6127 55 17.4893 55 22C55 26.5107 52.285 30.3873 48.4 32.0847V79.2C48.4 81.6301 46.4301 83.6 44 83.6C41.57 83.6 39.6 81.6301 39.6 79.2V32.0847ZM39.6 22C39.6 24.4301 41.57 26.4 44 26.4C46.4301 26.4 48.4 24.4301 48.4 22C48.4 19.5699 46.4301 17.6 44 17.6C41.57 17.6 39.6 19.5699 39.6 22Z" fill="#2C2C2C"/>
<path fill-rule="evenodd" clip-rule="evenodd" d="M11 48.4C11 52.9107 13.715 56.7873 17.6 58.4847V79.2C17.6 81.6301 19.57 83.6 22 83.6C24.4301 83.6 26.4 81.6301 26.4 79.2V58.4847C30.285 56.7873 33 52.9107 33 48.4C33 43.8893 30.285 40.0127 26.4 38.3153V8.8C26.4 6.36994 24.4301 4.4 22 4.4C19.57 4.4 17.6 6.36994 17.6 8.8V38.3153C13.715 40.0127 11 43.8893 11 48.4ZM22 52.8C19.57 52.8 17.6 50.8301 17.6 48.4C17.6 45.9699 19.57 44 22 44C24.4301 44 26.4 45.9699 26.4 48.4C26.4 50.8301 24.4301 52.8 22 52.8Z" fill="#2C2C2C"/>
</svg>
