<svg width="88" height="88" viewBox="0 0 88 88" fill="none" xmlns="http://www.w3.org/2000/svg">
<path d="M15.3999 35.2C14.1849 35.2 13.1999 36.185 13.1999 37.4C13.1999 38.615 14.1849 39.6 15.3999 39.6H28.5999C29.815 39.6 30.7999 38.615 30.7999 37.4C30.7999 36.185 29.815 35.2 28.5999 35.2H15.3999Z" fill="#2C2C2C"/>
<path d="M57.1999 37.4C57.1999 36.185 58.1849 35.2 59.3999 35.2H63.7999V30.8C63.7999 29.585 64.7849 28.6 65.9999 28.6C67.215 28.6 68.1999 29.585 68.1999 30.8V35.2H72.5999C73.815 35.2 74.7999 36.185 74.7999 37.4C74.7999 38.615 73.815 39.6 72.5999 39.6H68.1999V44C68.1999 45.215 67.215 46.2 65.9999 46.2C64.7849 46.2 63.7999 45.215 63.7999 44V39.6H59.3999C58.1849 39.6 57.1999 38.615 57.1999 37.4Z" fill="#2C2C2C"/>
<path fill-rule="evenodd" clip-rule="evenodd" d="M17.5999 19.8V22H8.79993C6.36988 22 4.39993 23.97 4.39993 26.4V61.6C4.39993 64.0301 6.36988 66 8.79994 66H79.1999C81.63 66 83.5999 64.0301 83.5999 61.6V26.4C83.5999 23.97 81.63 22 79.1999 22H70.3999V19.8C70.3999 18.585 69.415 17.6 68.1999 17.6H63.7999C62.5849 17.6 61.5999 18.585 61.5999 19.8V22H26.3999V19.8C26.3999 18.585 25.415 17.6 24.1999 17.6H19.7999C18.5849 17.6 17.5999 18.585 17.5999 19.8ZM8.79993 61.6V26.4H79.1999V61.6H8.79993Z" fill="#2C2C2C"/>
</svg>
