<svg width="94" height="94" viewBox="0 0 94 94" fill="none" xmlns="http://www.w3.org/2000/svg">
<path d="M16.45 37.6C15.1521 37.6 14.1 38.6521 14.1 39.95C14.1 41.2479 15.1521 42.3 16.45 42.3H30.55C31.8479 42.3 32.9 41.2479 32.9 39.95C32.9 38.6521 31.8479 37.6 30.55 37.6H16.45Z" fill="#151618"/>
<path d="M61.1 39.95C61.1 38.6521 62.1521 37.6 63.45 37.6H68.15V32.9C68.15 31.6021 69.2021 30.55 70.5 30.55C71.7979 30.55 72.85 31.6021 72.85 32.9V37.6H77.55C78.8479 37.6 79.9 38.6521 79.9 39.95C79.9 41.2479 78.8479 42.3 77.55 42.3H72.85V47C72.85 48.2979 71.7979 49.35 70.5 49.35C69.2021 49.35 68.15 48.2979 68.15 47V42.3H63.45C62.1521 42.3 61.1 41.2479 61.1 39.95Z" fill="#151618"/>
<path fill-rule="evenodd" clip-rule="evenodd" d="M18.8 21.15V23.5H9.4C6.80426 23.5 4.7 25.6043 4.7 28.2V65.8C4.7 68.3957 6.80426 70.5 9.4 70.5H84.6C87.1957 70.5 89.3 68.3957 89.3 65.8V28.2C89.3 25.6043 87.1957 23.5 84.6 23.5H75.2V21.15C75.2 19.8521 74.1479 18.8 72.85 18.8H68.15C66.8521 18.8 65.8 19.8521 65.8 21.15V23.5H28.2V21.15C28.2 19.8521 27.1479 18.8 25.85 18.8H21.15C19.8521 18.8 18.8 19.8521 18.8 21.15ZM9.4 65.8V28.2H84.6V65.8H9.4Z" fill="#151618"/>
</svg>
