<svg width="88" height="88" viewBox="0 0 88 88" fill="none" xmlns="http://www.w3.org/2000/svg">
<path d="M65.3987 32.2001L48.3999 50.4291V13.2C48.3999 10.77 46.43 8.80005 43.9999 8.80005C41.5699 8.80005 39.5999 10.77 39.5999 13.2V50.4658L22.5779 32.212C20.9206 30.4347 18.1364 30.3375 16.3591 31.9948C14.5819 33.6521 14.4846 36.4364 16.1419 38.2136L40.7484 64.6008C41.9109 65.8474 43.6278 66.2675 45.1628 65.8352C45.9284 65.6282 46.6475 65.2118 47.2282 64.589L71.8347 38.2018C73.492 36.4246 73.3947 33.6403 71.6175 31.983C69.8402 30.3257 67.056 30.4229 65.3987 32.2001Z" fill="#2C2C2C"/>
<path d="M13.1999 65.6481V74.8001H74.7999V66.0001C74.7999 63.57 76.7699 61.6001 79.1999 61.6001C81.63 61.6001 83.5999 63.57 83.5999 66.0001V79.2001C83.5999 81.6301 81.63 83.6001 79.1999 83.6001H8.7999C6.36985 83.6001 4.3999 81.6301 4.3999 79.2001C4.3999 79.1411 4.40106 79.0824 4.40336 79.0241C4.40106 78.9657 4.3999 78.907 4.3999 78.8481V65.6481C4.3999 63.218 6.36985 61.2481 8.7999 61.2481C11.23 61.2481 13.1999 63.218 13.1999 65.6481Z" fill="#2C2C2C"/>
</svg>
