<svg width="88" height="88" viewBox="0 0 88 88" fill="none" xmlns="http://www.w3.org/2000/svg">
<path d="M44 88C37.9867 88 32.3033 86.845 26.95 84.535C21.5967 82.225 16.9217 79.0717 12.925 75.075C8.92833 71.0783 5.775 66.4033 3.465 61.05C1.155 55.6967 0 50.0133 0 44C0 37.9133 1.19167 32.1933 3.575 26.84C5.95833 21.4867 9.185 16.83 13.255 12.87C17.325 8.91 22.0733 5.775 27.5 3.465C32.9267 1.155 38.72 0 44.88 0C50.7467 0 56.2833 1.00833 61.49 3.025C66.6967 5.04167 71.2617 7.82833 75.185 11.385C79.1083 14.9417 82.225 19.1583 84.535 24.035C86.845 28.9117 88 34.1733 88 39.82C88 48.2533 85.4333 54.725 80.3 59.235C75.1667 63.745 68.9333 66 61.6 66H53.46C52.8 66 52.3417 66.1833 52.085 66.55C51.8283 66.9167 51.7 67.32 51.7 67.76C51.7 68.64 52.25 69.905 53.35 71.555C54.45 73.205 55 75.0933 55 77.22C55 80.8867 53.9917 83.6 51.975 85.36C49.9583 87.12 47.3 88 44 88ZM19.8 48.4C21.7067 48.4 23.2833 47.7767 24.53 46.53C25.7767 45.2833 26.4 43.7067 26.4 41.8C26.4 39.8933 25.7767 38.3167 24.53 37.07C23.2833 35.8233 21.7067 35.2 19.8 35.2C17.8933 35.2 16.3167 35.8233 15.07 37.07C13.8233 38.3167 13.2 39.8933 13.2 41.8C13.2 43.7067 13.8233 45.2833 15.07 46.53C16.3167 47.7767 17.8933 48.4 19.8 48.4ZM33 30.8C34.9067 30.8 36.4833 30.1767 37.73 28.93C38.9767 27.6833 39.6 26.1067 39.6 24.2C39.6 22.2933 38.9767 20.7167 37.73 19.47C36.4833 18.2233 34.9067 17.6 33 17.6C31.0933 17.6 29.5167 18.2233 28.27 19.47C27.0233 20.7167 26.4 22.2933 26.4 24.2C26.4 26.1067 27.0233 27.6833 28.27 28.93C29.5167 30.1767 31.0933 30.8 33 30.8ZM55 30.8C56.9067 30.8 58.4833 30.1767 59.73 28.93C60.9767 27.6833 61.6 26.1067 61.6 24.2C61.6 22.2933 60.9767 20.7167 59.73 19.47C58.4833 18.2233 56.9067 17.6 55 17.6C53.0933 17.6 51.5167 18.2233 50.27 19.47C49.0233 20.7167 48.4 22.2933 48.4 24.2C48.4 26.1067 49.0233 27.6833 50.27 28.93C51.5167 30.1767 53.0933 30.8 55 30.8ZM68.2 48.4C70.1067 48.4 71.6833 47.7767 72.93 46.53C74.1767 45.2833 74.8 43.7067 74.8 41.8C74.8 39.8933 74.1767 38.3167 72.93 37.07C71.6833 35.8233 70.1067 35.2 68.2 35.2C66.2933 35.2 64.7167 35.8233 63.47 37.07C62.2233 38.3167 61.6 39.8933 61.6 41.8C61.6 43.7067 62.2233 45.2833 63.47 46.53C64.7167 47.7767 66.2933 48.4 68.2 48.4ZM44 79.2C44.66 79.2 45.1917 79.0167 45.595 78.65C45.9983 78.2833 46.2 77.8067 46.2 77.22C46.2 76.1933 45.65 74.9833 44.55 73.59C43.45 72.1967 42.9 70.1067 42.9 67.32C42.9 64.24 43.9633 61.7833 46.09 59.95C48.2167 58.1167 50.82 57.2 53.9 57.2H61.6C66.44 57.2 70.5833 55.7883 74.03 52.965C77.4767 50.1417 79.2 45.76 79.2 39.82C79.2 30.9467 75.8083 23.5583 69.025 17.655C62.2417 11.7517 54.1933 8.8 44.88 8.8C34.9067 8.8 26.4 12.21 19.36 19.03C12.32 25.85 8.8 34.1733 8.8 44C8.8 53.7533 12.2283 62.0583 19.085 68.915C25.9417 75.7717 34.2467 79.2 44 79.2Z" fill="#2C2C2C"/>
</svg>
