<svg width="198" height="198" viewBox="0 0 198 198" fill="none" xmlns="http://www.w3.org/2000/svg">
<mask id="mask0_48_2482" style="mask-type:alpha" maskUnits="userSpaceOnUse" x="0" y="0" width="198" height="198">
<rect width="197.5" height="197.5" fill="#D9D9D9"/>
</mask>
<g mask="url(#mask0_48_2482)">
<path d="M24.6875 164.583C22.3559 164.583 20.4015 163.795 18.8242 162.217C17.247 160.64 16.4583 158.686 16.4583 156.354C16.4583 154.983 16.7326 153.714 17.2812 152.548C17.8299 151.382 18.6528 150.457 19.75 149.771L90.5208 96.6927V82.2917C90.5208 79.9601 91.3437 78.0056 92.9896 76.4284C94.6354 74.8511 96.6241 74.0625 98.9557 74.0625C102.385 74.0625 105.265 72.8281 107.596 70.3594C109.928 67.8906 111.094 64.9418 111.094 61.513C111.094 58.0842 109.894 55.204 107.493 52.8724C105.093 50.5408 102.179 49.375 98.75 49.375C95.3212 49.375 92.4067 50.5751 90.0065 52.9753C87.6063 55.3754 86.4062 58.2899 86.4062 61.7188H69.9479C69.9479 53.7639 72.7595 46.9748 78.3828 41.3516C84.0061 35.7283 90.7951 32.9167 98.75 32.9167C106.705 32.9167 113.494 35.694 119.117 41.2487C124.74 46.8034 127.552 53.5582 127.552 61.513C127.552 67.9592 125.666 73.7196 121.895 78.7943C118.123 83.8689 113.151 87.3663 106.979 89.2865V96.6927L177.75 149.771C178.847 150.457 179.67 151.382 180.219 152.548C180.767 153.714 181.042 154.983 181.042 156.354C181.042 158.686 180.253 160.64 178.676 162.217C177.099 163.795 175.144 164.583 172.812 164.583H24.6875ZM49.375 148.125H148.125L98.75 111.094L49.375 148.125Z" fill="#1C1B1F"/>
</g>
</svg>
