<svg width="88" height="88" viewBox="0 0 88 88" fill="none" xmlns="http://www.w3.org/2000/svg">
<mask id="mask0_358_10392" style="mask-type:alpha" maskUnits="userSpaceOnUse" x="0" y="0" width="88" height="88">
<rect width="88" height="88" fill="#D9D9D9"/>
</mask>
<g mask="url(#mask0_358_10392)">
<path d="M11 73.3333C9.96112 73.3333 9.09029 72.982 8.38751 72.2792C7.68473 71.5764 7.33334 70.7056 7.33334 69.6667C7.33334 69.0556 7.45557 68.4903 7.70001 67.9708C7.94445 67.4514 8.31112 67.0389 8.80001 66.7333L40.3333 43.0833V36.6667C40.3333 35.6278 40.7 34.7569 41.4333 34.0542C42.1667 33.3514 43.0528 33 44.0917 33C45.6195 33 46.9028 32.45 47.9417 31.35C48.9806 30.25 49.5 28.9361 49.5 27.4083C49.5 25.8806 48.9653 24.5972 47.8958 23.5583C46.8264 22.5194 45.5278 22 44 22C42.4722 22 41.1736 22.5347 40.1042 23.6042C39.0347 24.6736 38.5 25.9722 38.5 27.5H31.1667C31.1667 23.9556 32.4195 20.9306 34.925 18.425C37.4306 15.9194 40.4556 14.6667 44 14.6667C47.5445 14.6667 50.5695 15.9042 53.075 18.3792C55.5806 20.8542 56.8333 23.8639 56.8333 27.4083C56.8333 30.2806 55.9931 32.8472 54.3125 35.1083C52.632 37.3695 50.4167 38.9278 47.6667 39.7833V43.0833L79.2 66.7333C79.6889 67.0389 80.0556 67.4514 80.3 67.9708C80.5445 68.4903 80.6667 69.0556 80.6667 69.6667C80.6667 70.7056 80.3153 71.5764 79.6125 72.2792C78.9097 72.982 78.0389 73.3333 77 73.3333H11ZM22 66H66L44 49.5L22 66Z" fill="#2C2C2C"/>
</g>
</svg>
