<svg width="88" height="88" viewBox="0 0 88 88" fill="none" xmlns="http://www.w3.org/2000/svg">
<path d="M43.9998 48.4001C46.4299 48.4001 48.3998 46.4302 48.3998 44.0001C48.3998 41.5701 46.4299 39.6001 43.9998 39.6001C41.5698 39.6001 39.5998 41.5701 39.5998 44.0001C39.5998 46.4302 41.5698 48.4001 43.9998 48.4001Z" fill="#2C2C2C"/>
<path d="M35.1998 30.8001C35.1998 33.2302 33.2299 35.2001 30.7998 35.2001C28.3698 35.2001 26.3998 33.2302 26.3998 30.8001C26.3998 28.3701 28.3698 26.4001 30.7998 26.4001C33.2299 26.4001 35.1998 28.3701 35.1998 30.8001Z" fill="#2C2C2C"/>
<path d="M57.1998 35.2001C59.6299 35.2001 61.5998 33.2302 61.5998 30.8001C61.5998 28.3701 59.6299 26.4001 57.1998 26.4001C54.7697 26.4001 52.7998 28.3701 52.7998 30.8001C52.7998 33.2302 54.7697 35.2001 57.1998 35.2001Z" fill="#2C2C2C"/>
<path d="M61.5998 57.2001C61.5998 59.6302 59.6299 61.6001 57.1998 61.6001C54.7697 61.6001 52.7998 59.6302 52.7998 57.2001C52.7998 54.7701 54.7697 52.8001 57.1998 52.8001C59.6299 52.8001 61.5998 54.7701 61.5998 57.2001Z" fill="#2C2C2C"/>
<path d="M30.7998 61.6001C33.2299 61.6001 35.1998 59.6302 35.1998 57.2001C35.1998 54.7701 33.2299 52.8001 30.7998 52.8001C28.3698 52.8001 26.3998 54.7701 26.3998 57.2001C26.3998 59.6302 28.3698 61.6001 30.7998 61.6001Z" fill="#2C2C2C"/>
<path fill-rule="evenodd" clip-rule="evenodd" d="M8.7998 17.6001C8.7998 12.74 12.7397 8.80014 17.5998 8.80014H70.3998C75.2599 8.80014 79.1998 12.74 79.1998 17.6001V70.4001C79.1998 75.2602 75.2599 79.2001 70.3998 79.2001H17.5998C12.7397 79.2001 8.7998 75.2602 8.7998 70.4001V17.6001ZM17.5998 13.2001H70.3998C72.8299 13.2001 74.7998 15.1701 74.7998 17.6001V70.4001C74.7998 72.8302 72.8299 74.8001 70.3998 74.8001H17.5998C15.1698 74.8001 13.1998 72.8302 13.1998 70.4001V17.6001C13.1998 15.1701 15.1698 13.2001 17.5998 13.2001Z" fill="#2C2C2C"/>
</svg>
