<svg width="88" height="88" viewBox="0 0 88 88" fill="none" xmlns="http://www.w3.org/2000/svg">
<path fill-rule="evenodd" clip-rule="evenodd" d="M8.79999 4.39999C6.36994 4.39999 4.39999 6.36994 4.39999 8.79999V22C4.39999 24.43 6.36994 26.4 8.79999 26.4H13.2V61.6H8.79999C6.36994 61.6 4.39999 63.5699 4.39999 66V79.2C4.39999 81.6301 6.36994 83.6 8.79999 83.6H22C24.43 83.6 26.4 81.6301 26.4 79.2V74.8H61.6V79.2C61.6 81.6301 63.5699 83.6 66 83.6H79.2C81.6301 83.6 83.6 81.6301 83.6 79.2V66C83.6 63.5699 81.6301 61.6 79.2 61.6H74.8V26.4H79.2C81.6301 26.4 83.6 24.43 83.6 22V8.79999C83.6 6.36994 81.6301 4.39999 79.2 4.39999H66C63.5699 4.39999 61.6 6.36994 61.6 8.79999V13.2H26.4V8.79999C26.4 6.36994 24.43 4.39999 22 4.39999H8.79999ZM26.4 19.8V22C26.4 24.43 24.43 26.4 22 26.4H19.8V61.6H22C24.43 61.6 26.4 63.5699 26.4 66V68.2H61.6V66C61.6 63.5699 63.5699 61.6 66 61.6H68.2V26.4H66C63.5699 26.4 61.6 24.43 61.6 22V19.8H26.4ZM19.8 11H11V19.8H19.8V11ZM68.2 11V19.8H77V11H68.2ZM68.2 68.2V77H77V68.2H68.2ZM11 68.2V77H19.8V68.2H11Z" fill="#2C2C2C"/>
</svg>
