<svg width="88" height="88" viewBox="0 0 88 88" fill="none" xmlns="http://www.w3.org/2000/svg">
<path fill-rule="evenodd" clip-rule="evenodd" d="M43.8769 39.4437C41.1865 35.7941 39.5966 31.2835 39.5966 26.4016C39.5966 24.5079 39.8358 22.6699 40.2859 20.9164L11.243 37.6843C9.66451 38.5957 7.64611 38.0548 6.73476 36.4763C5.82341 34.8978 6.36425 32.8794 7.94271 31.9681L49.8617 7.76617C49.9374 7.72242 50.0142 7.68211 50.0918 7.64499C53.4396 5.58688 57.3803 4.3999 61.5983 4.3999C73.7495 4.3999 83.6 14.2504 83.6 26.4016C83.6 30.6178 82.4141 34.557 80.3576 37.9038C80.3187 37.9863 80.2761 38.068 80.2296 38.1484L56.0277 80.0674C55.1163 81.6458 53.0979 82.1867 51.5194 81.2753C49.9409 80.364 49.4001 78.3456 50.3114 76.7671L67.0854 47.7137C65.3314 48.1639 63.4928 48.4034 61.5983 48.4034C56.7102 48.4034 52.1945 46.8094 48.5424 44.1128L20.3558 72.2994C19.067 73.5882 16.9773 73.5882 15.6885 72.2994C14.3997 71.0106 14.3997 68.9209 15.6885 67.6321L43.8769 39.4437ZM74.7994 26.4016C74.7994 33.6924 68.889 39.6027 61.5983 39.6027C59.147 39.6027 56.8518 38.9345 54.8848 37.7704L63.917 28.7382C65.2058 27.4494 65.2058 25.3597 63.917 24.0709C62.6282 22.7821 60.5385 22.7821 59.2497 24.0709L50.2206 33.1C49.062 31.1364 48.3973 28.8467 48.3973 26.4016C48.3973 19.1109 54.3076 13.2006 61.5983 13.2006C68.889 13.2006 74.7994 19.1109 74.7994 26.4016Z" fill="#2C2C2C"/>
</svg>
