<svg width="88" height="88" viewBox="0 0 88 88" fill="none" xmlns="http://www.w3.org/2000/svg">
<path fill-rule="evenodd" clip-rule="evenodd" d="M30.3659 57.091C31.582 60.027 32.208 63.1739 32.208 66.3519V73.3575L55.572 67.0971V66.5719C55.572 63.3939 56.1979 60.247 57.4141 57.311C58.6303 54.3749 60.4128 51.7071 62.66 49.4599L62.6676 49.4675C66.3597 45.7754 68.8741 41.0714 69.8927 35.9503C70.9114 30.8292 70.3886 25.521 68.3904 20.6971C66.3923 15.8731 63.0085 11.75 58.667 8.84911C54.3256 5.94824 49.2214 4.3999 44 4.3999C38.7786 4.3999 33.6744 5.94823 29.3329 8.8491C24.9915 11.75 21.6077 15.8731 19.6096 20.6971C17.6114 25.521 17.0886 30.8292 18.1073 35.9503C19.1259 41.0714 21.6403 45.7754 25.3324 49.4675L25.3386 49.4613C27.4829 51.6616 29.1894 54.2507 30.3659 57.091ZM44 10.9999C40.0839 10.9999 36.2558 12.1612 32.9997 14.3368C29.7436 16.5125 27.2058 19.6048 25.7072 23.2228C24.2086 26.8407 23.8165 30.8219 24.5804 34.6627C25.3242 38.4017 27.131 41.8443 29.781 44.5789L29.7869 44.573C32.6469 47.4331 34.9156 50.8284 36.4635 54.5653C37.2866 56.5524 37.8973 58.6154 38.2887 60.7199H49.533C49.9256 58.6916 50.5221 56.7031 51.3165 54.7853C52.8643 51.0484 55.133 47.6531 57.9931 44.793L58.0007 44.8006C60.7698 42.0315 62.6556 38.5035 63.4195 34.6627C64.1835 30.8219 63.7914 26.8407 62.2928 23.2228C60.7942 19.6048 58.2564 16.5125 55.0003 14.3368C51.7442 12.1612 47.9161 10.9999 44 10.9999Z" fill="#2C2C2C"/>
<path d="M55.572 69.3747L32.208 75.6351V79.1999C32.208 79.2324 32.2083 79.2648 32.209 79.2972L55.572 73.0371V69.3747Z" fill="#2C2C2C"/>
<path d="M55.572 75.3147L32.8054 81.415C33.5683 82.7218 34.9856 83.5999 36.608 83.5999H51.172C53.602 83.5999 55.572 81.63 55.572 79.1999V75.3147Z" fill="#2C2C2C"/>
</svg>
