<svg width="72" height="72" viewBox="0 0 72 72" fill="none" xmlns="http://www.w3.org/2000/svg">
<path fill-rule="evenodd" clip-rule="evenodd" d="M72 22.3288C72.0042 21.0794 71.3577 19.8626 70.1984 19.193L37.8696 0.523051C37.7222 0.433708 37.5689 0.355345 37.4112 0.288324C36.9546 0.0931643 36.4748 -0.000417257 36 1.39836e-06C35.5252 -0.000417281 35.0453 0.0931749 34.5887 0.288357C34.431 0.35537 34.2778 0.433721 34.1304 0.523047L1.80164 19.193C0.642356 19.8625 -0.00413132 21.0793 2.02052e-05 22.3287C-0.00416613 23.5782 0.642325 24.7949 1.80164 25.4645L34.1257 44.1318C34.2919 44.2328 34.4655 44.3199 34.6445 44.3925C35.0594 44.5616 35.4923 44.6478 35.9224 44.6567C36.4409 44.6684 36.9673 44.5681 37.4645 44.346C37.6018 44.2851 37.7355 44.2155 37.8647 44.1374L70.1984 25.4646C71.3577 24.7951 72.0042 23.5783 72 22.3288ZM36.0001 36.8934L61.2199 22.3288L36 7.7642L10.7802 22.3288L36.0001 36.8934Z" fill="#2C2C2C"/>
<path d="M5.40372 32.5865C3.68087 31.5915 1.47788 32.182 0.483189 33.9053C-0.511498 35.6286 0.0787931 37.8322 1.80164 38.8271L34.1305 57.4972C34.2774 57.5862 34.4301 57.6643 34.5873 57.7312C35.0451 57.9271 35.5263 58.0209 36.0025 58.0202C36.4758 58.0203 36.954 57.9269 37.4091 57.7327C37.5677 57.6655 37.7217 57.5868 37.8698 57.497L70.1984 38.8271C71.9212 37.8322 72.5115 35.6286 71.5168 33.9053C70.5221 32.182 68.3191 31.5915 66.5963 32.5865L36 50.256L5.40372 32.5865Z" fill="#2C2C2C"/>
<path d="M0.483189 47.8851C1.47788 46.1618 3.68087 45.5713 5.40372 46.5663L36 64.2358L66.5963 46.5663C68.3191 45.5713 70.5221 46.1618 71.5168 47.8851C72.5115 49.6084 71.9212 51.812 70.1984 52.807L37.8698 71.4768C37.7216 71.5667 37.5674 71.6454 37.4088 71.7127C36.9543 71.9066 36.4768 71.9999 36.0043 72C35.527 72.001 35.0445 71.907 34.5856 71.7103C34.4291 71.6436 34.277 71.5658 34.1306 71.4771L1.80164 52.807C0.0787931 51.812 -0.511498 49.6084 0.483189 47.8851Z" fill="#2C2C2C"/>
</svg>
