<svg width="88" height="88" viewBox="0 0 88 88" fill="none" xmlns="http://www.w3.org/2000/svg">
<path d="M6.60004 48.4V59.4C6.60004 64.2601 10.5399 68.2 15.4 68.2V63.8C12.97 63.8 11 61.83 11 59.4V48.4H6.60004Z" fill="#2C2C2C"/>
<path d="M59.4 6.59999C64.2601 6.59999 68.2 10.5399 68.2 15.4H63.8C63.8 12.9699 61.8301 11 59.4 11H48.4V6.59999H59.4Z" fill="#2C2C2C"/>
<path d="M6.60004 26.4H11V15.4C11 12.9699 12.97 11 15.4 11H26.4V6.59999H15.4C10.5399 6.59999 6.60004 10.5399 6.60004 15.4V26.4Z" fill="#2C2C2C"/>
<path d="M22 19.8C20.785 19.8 19.8 20.785 19.8 22V72.6C19.8 77.4601 23.7399 81.4 28.6 81.4H72.6C77.4601 81.4 81.4 77.4601 81.4 72.6V28.6C81.4 23.7399 77.4601 19.8 72.6 19.8H22Z" fill="#2C2C2C"/>
</svg>
