<svg width="72" height="72" viewBox="0 0 72 72" fill="none" xmlns="http://www.w3.org/2000/svg">
<path fill-rule="evenodd" clip-rule="evenodd" d="M33.1375 38.0291C32.1671 44.0231 26.968 48.6 20.7 48.6C14.3523 48.6 9.10101 43.9061 8.2276 37.8H3.6C2.60589 37.8 1.8 36.9941 1.8 36C1.8 35.0059 2.60589 34.2 3.6 34.2H8.2276C9.10101 28.0939 14.3523 23.4 20.7 23.4C27.1108 23.4 32.4033 28.1877 33.1972 34.3826C35.0577 34.1391 36.9422 34.1391 38.8028 34.3826C39.5967 28.1877 44.8892 23.4 51.3 23.4C57.6476 23.4 62.899 28.0939 63.7724 34.2H68.4C69.3941 34.2 70.2 35.0059 70.2 36C70.2 36.9941 69.3941 37.8 68.4 37.8H63.7724C62.899 43.9061 57.6476 48.6 51.3 48.6C45.032 48.6 39.8329 44.0231 38.8625 38.0291C36.9664 37.7236 35.0335 37.7237 33.1375 38.0291ZM20.7 45C25.6706 45 29.7 40.9706 29.7 36C29.7 31.0294 25.6706 27 20.7 27C15.7294 27 11.7 31.0294 11.7 36C11.7 40.9706 15.7294 45 20.7 45ZM51.3 45C56.2706 45 60.3 40.9706 60.3 36C60.3 31.0294 56.2706 27 51.3 27C46.3294 27 42.3 31.0294 42.3 36C42.3 40.9706 46.3294 45 51.3 45Z" fill="#2C2C2C"/>
</svg>
