<svg width="72" height="89" viewBox="0 0 72 89" fill="none" xmlns="http://www.w3.org/2000/svg">
<path fill-rule="evenodd" clip-rule="evenodd" d="M35.1114 1.75231C33.7249 2.72244 32.6096 4.69084 32.6096 6.16629C32.6096 8.20446 31.698 9.12958 28.7257 10.111C26.5896 10.8155 23.0197 12.6297 20.7913 14.1412C17.5658 16.3301 15.8698 16.7511 12.4687 16.2075C8.73897 15.611 7.88814 15.9149 5.77231 18.6058C3.14441 21.945 2.6312 25.8435 4.56359 27.7759C5.43468 28.647 5.27487 30.4781 4.00087 34.2303C3.02286 37.1114 2.22267 40.2109 2.22267 41.118C2.22267 42.0251 1.71622 42.7668 1.09723 42.7668C-0.612316 42.7668 -0.247673 45.6861 1.65995 47.2685C2.58844 48.0394 3.40663 49.7467 3.47866 51.0635C3.60246 53.3369 3.63735 53.3448 4.1573 51.2076C4.45892 49.9696 5.49658 48.0653 6.46221 46.9759C7.91853 45.3339 7.9793 44.5483 6.81672 42.3773C4.9136 38.821 7.78685 31.5123 11.0866 31.5123C14.0454 31.5123 18.1679 26.1237 17.7493 22.8026C17.469 20.5708 18.653 19.4645 25.2852 15.764L33.1532 11.3726L35.6471 13.7157C37.6459 15.5941 38.2064 17.5355 38.4697 23.5037C38.6667 27.9436 39.2485 30.7223 39.9126 30.3869C40.5248 30.0774 40.8579 26.9059 40.652 23.3394C40.3053 17.3194 40.5293 16.6205 43.7593 13.6032C45.6737 11.8149 47.2403 10.7648 47.2403 11.269C47.2403 12.4327 57.1329 18.0071 59.1992 18.0071C63.5401 18.0071 57.6653 12.2696 51.1084 10.1053C48.5019 9.2455 47.0141 7.92986 46.5482 6.07626C45.7975 3.08371 42.1511 0 39.3622 0C38.4 0 36.4867 0.788934 35.1114 1.75231ZM58.4947 55.321C58.4947 81.1071 58.596 82.4183 60.4642 80.8112C61.548 79.8782 64.5856 77.9334 67.2169 76.4895L72 73.8649V51.0005V28.136H65.2474H58.4947V55.321ZM40.4877 65.396C40.4877 83.9478 40.796 89.028 41.8945 88.5913C42.6688 88.283 45.4542 87.1609 48.0844 86.0973L52.8675 84.1638V62.902V41.6413H46.6776H40.4877V65.396ZM22.4851 67.8078L22.4885 82.7199L27.7927 84.9708C30.7098 86.2088 33.4942 87.3905 33.9792 87.5964C34.4632 87.8035 34.8605 80.3925 34.8605 71.1279C34.8605 52.3116 35.1654 52.9486 26.1383 52.9115L22.4806 52.8957L22.4851 67.8078ZM2.22267 66.2693V71.7649L9.05635 75.8356C12.8142 78.0741 16.1061 79.9063 16.3717 79.9063C16.6362 79.9063 16.8534 75.6015 16.8534 70.3401V60.7738H9.53804H2.22267V66.2693Z" fill="#2C2C2C"/>
</svg>
