<svg width="72" height="72" viewBox="0 0 72 72" fill="none" xmlns="http://www.w3.org/2000/svg">
<path d="M33.9629 12.2549C37.8449 8.37288 43.11 6.192 48.6 6.192C54.09 6.192 59.3551 8.37289 63.2371 12.2549C67.1191 16.1369 69.3 21.402 69.3 26.892C69.3 32.382 67.1191 37.6471 63.2371 41.5291L63.2363 41.5283C63.208 41.5592 63.179 41.5896 63.1491 41.6196L41.5116 63.257C40.4572 64.3114 38.7476 64.3114 37.6932 63.257C36.6388 62.2026 36.6388 60.4931 37.6932 59.4387L59.3307 37.8012C59.3606 37.7713 59.391 37.7422 59.422 37.714L59.4187 37.7107C62.288 34.8414 63.9 30.9498 63.9 26.892C63.9 22.8342 62.288 18.9426 59.4187 16.0733C56.5494 13.204 52.6578 11.592 48.6 11.592C44.5422 11.592 40.6506 13.204 37.7813 16.0733L37.7802 16.0722C37.7409 16.117 37.6999 16.1608 37.6572 16.2036L11.1264 42.7344L11.1314 42.7394C9.19044 44.6804 8.1 47.313 8.1 50.058C8.1 52.803 9.19044 55.4356 11.1314 57.3766C13.0724 59.3176 15.705 60.408 18.45 60.408C21.0613 60.408 23.5709 59.4212 25.4801 57.654C25.5154 57.6144 25.552 57.5756 25.59 57.5376L52.3464 30.7812C52.3703 30.7573 52.3945 30.7339 52.4191 30.7111L52.4184 30.7104C53.4311 29.6977 54 28.3242 54 26.892C54 25.4598 53.4311 24.0863 52.4184 23.0736C51.4057 22.0609 50.0322 21.492 48.6 21.492C47.1678 21.492 45.7943 22.0609 44.7816 23.0736L44.7807 23.0727L22.6324 45.221C21.578 46.2754 19.8684 46.2754 18.814 45.221C17.7596 44.1666 17.7596 42.4571 18.814 41.4026L41.394 18.8226C41.545 18.6717 41.7094 18.5423 41.8834 18.4346C43.7839 16.9251 46.149 16.092 48.6 16.092C51.4643 16.092 54.2114 17.2299 56.2368 19.2552C58.2621 21.2806 59.4 24.0277 59.4 26.892C59.4 29.7563 58.2621 32.5034 56.2368 34.5288L56.2349 34.5269C56.2241 34.5385 56.2131 34.55 56.2021 34.5615C56.1898 34.5743 56.1774 34.587 56.1648 34.5996L29.5782 61.1862L29.5869 61.1949C26.6332 64.1486 22.6272 65.808 18.45 65.808C14.2728 65.808 10.2668 64.1486 7.31307 61.1949C4.35937 58.2412 2.7 54.2352 2.7 50.058C2.7 46.1092 4.18293 42.3132 6.84038 39.4147C6.91027 39.3243 6.98667 39.2373 7.0696 39.1544L33.8388 12.3852C33.8816 12.3424 33.9254 12.3014 33.9702 12.2622L33.9629 12.2549Z" fill="#2C2C2C"/>
</svg>
