<svg width="88" height="88" viewBox="0 0 88 88" fill="none" xmlns="http://www.w3.org/2000/svg">
<mask id="mask0_358_10406" style="mask-type:alpha" maskUnits="userSpaceOnUse" x="0" y="0" width="88" height="88">
<rect width="88" height="88" fill="#D9D9D9"/>
</mask>
<g mask="url(#mask0_358_10406)">
<path d="M23.4667 69.6667H64.4417L56.7417 61.9667C54.9694 63.25 52.9986 64.2431 50.8292 64.9458C48.6597 65.6486 46.3833 66 44 66C41.6167 66 39.3403 65.6333 37.1708 64.9C35.0014 64.1667 33.0306 63.1583 31.2583 61.875L23.4667 69.6667ZM18.3333 64.4417L26.0333 56.7417C24.75 54.9694 23.7569 52.9986 23.0542 50.8292C22.3514 48.6597 22 46.3833 22 44C22 41.6167 22.3667 39.3403 23.1 37.1708C23.8333 35.0014 24.8417 33.0306 26.125 31.2583L18.3333 23.4667V64.4417ZM31.35 51.425L38.8667 44L31.35 36.575C30.6778 37.675 30.1736 38.8361 29.8375 40.0583C29.5014 41.2806 29.3333 42.5944 29.3333 44C29.3333 45.4056 29.5014 46.7194 29.8375 47.9417C30.1736 49.1639 30.6778 50.325 31.35 51.425ZM44 58.6667C45.4056 58.6667 46.7194 58.4986 47.9417 58.1625C49.1639 57.8264 50.325 57.3222 51.425 56.65L44 49.1333L36.4833 56.65C37.5833 57.3222 38.7597 57.8264 40.0125 58.1625C41.2653 58.4986 42.5944 58.6667 44 58.6667ZM44 38.775L51.425 31.35C50.325 30.6778 49.1639 30.1736 47.9417 29.8375C46.7194 29.5014 45.4056 29.3333 44 29.3333C42.5944 29.3333 41.2806 29.5014 40.0583 29.8375C38.8361 30.1736 37.675 30.6778 36.575 31.35L44 38.775ZM56.65 51.425C57.3222 50.325 57.8264 49.1639 58.1625 47.9417C58.4986 46.7194 58.6667 45.4056 58.6667 44C58.6667 42.5944 58.4986 41.2653 58.1625 40.0125C57.8264 38.7597 57.3222 37.5833 56.65 36.4833L49.225 43.9083L56.65 51.425ZM69.6667 64.4417V23.4667L61.875 31.2583C63.1583 33.0306 64.1667 35.0014 64.9 37.1708C65.6333 39.3403 66 41.6167 66 44C66 46.3833 65.6486 48.6597 64.9458 50.8292C64.2431 52.9986 63.25 54.9694 61.9667 56.7417L69.6667 64.4417ZM56.7417 26.125L64.5333 18.3333H23.5583L31.2583 26.0333C33.0306 24.75 35.0014 23.7569 37.1708 23.0542C39.3403 22.3514 41.6167 22 44 22C46.3833 22 48.6597 22.3667 50.8292 23.1C52.9986 23.8333 54.9694 24.8417 56.7417 26.125ZM18.3333 77C16.3167 77 14.5903 76.2819 13.1542 74.8458C11.7181 73.4097 11 71.6833 11 69.6667V18.3333C11 16.3167 11.7181 14.5903 13.1542 13.1542C14.5903 11.7181 16.3167 11 18.3333 11H69.6667C71.6833 11 73.4097 11.7181 74.8458 13.1542C76.2819 14.5903 77 16.3167 77 18.3333V69.6667C77 71.6833 76.2819 73.4097 74.8458 74.8458C73.4097 76.2819 71.6833 77 69.6667 77H18.3333Z" fill="#2C2C2C"/>
</g>
</svg>
