<svg width="89" height="88" viewBox="0 0 89 88" fill="none" xmlns="http://www.w3.org/2000/svg">
<path d="M73.418 33.3492L62.259 43.7551C60.4818 45.4123 60.3846 48.1966 62.0419 49.9738C63.6992 51.751 66.4834 51.8483 68.2606 50.191L87.5684 32.1862C87.7728 31.9955 87.9551 31.7899 88.115 31.5727C88.6599 30.8401 88.9823 29.9323 88.9823 28.9492C88.9823 27.7354 88.4908 26.6364 87.696 25.8403C87.6545 25.7984 87.6119 25.7571 87.5684 25.7165L68.2606 7.71173C66.4834 6.05443 63.6992 6.15166 62.0419 7.92889C60.3846 9.70611 60.4818 12.4903 62.259 14.1476L73.4133 24.5492H40.5823C38.1523 24.5492 36.1823 26.5191 36.1823 28.9492C36.1823 31.3792 38.1523 33.3492 40.5823 33.3492H73.418Z" fill="#2C2C2C"/>
<path d="M53.7823 59.048C53.7823 61.4781 51.8124 63.448 49.3823 63.448H16.5708L27.7282 73.8525C29.5055 75.5098 29.6027 78.294 27.9454 80.0712C26.2881 81.8484 23.5039 81.9457 21.7266 80.2884L2.63486 62.485C1.62748 61.6787 0.9823 60.4387 0.9823 59.048C0.9823 58.3094 1.16427 57.6134 1.48583 57.0022C1.71127 56.5672 2.01377 56.1627 2.39261 55.8094L21.7003 37.8047C23.4776 36.1474 26.2618 36.2446 27.9191 38.0218C29.5764 39.7991 29.4792 42.5833 27.7019 44.2406L16.5413 54.648H49.3823C51.8124 54.648 53.7823 56.618 53.7823 59.048Z" fill="#2C2C2C"/>
</svg>
