<svg width="87" height="87" viewBox="0 0 87 87" fill="none" xmlns="http://www.w3.org/2000/svg">
<path fill-rule="evenodd" clip-rule="evenodd" d="M2.17578 6.52187C2.17578 4.11944 4.12334 2.17188 6.52578 2.17188H34.8008C37.2032 2.17188 39.1508 4.11944 39.1508 6.52188V34.7969C39.1508 37.1993 37.2032 39.1469 34.8008 39.1469H6.52578C4.12334 39.1469 2.17578 37.1993 2.17578 34.7969V6.52187ZM6.52578 6.52188H34.8008V34.7969H6.52578L6.52578 6.52188Z" fill="#151618"/>
<path fill-rule="evenodd" clip-rule="evenodd" d="M47.8508 6.52187C47.8508 4.11944 49.7983 2.17188 52.2008 2.17188H80.4758C82.8782 2.17188 84.8258 4.11944 84.8258 6.52188V34.7969C84.8258 37.1993 82.8782 39.1469 80.4758 39.1469H52.2008C49.7983 39.1469 47.8508 37.1993 47.8508 34.7969V6.52187ZM52.2008 6.52188H80.4758V34.7969H52.2008V6.52188Z" fill="#151618"/>
<path fill-rule="evenodd" clip-rule="evenodd" d="M6.52578 47.8469C4.12334 47.8469 2.17578 49.7944 2.17578 52.1969V80.4719C2.17578 82.8743 4.12334 84.8219 6.52578 84.8219H34.8008C37.2032 84.8219 39.1508 82.8743 39.1508 80.4719V52.1969C39.1508 49.7944 37.2032 47.8469 34.8008 47.8469H6.52578ZM34.8008 52.1969H6.52578L6.52578 80.4719H34.8008V52.1969Z" fill="#151618"/>
<path fill-rule="evenodd" clip-rule="evenodd" d="M47.8508 52.1969C47.8508 49.7944 49.7983 47.8469 52.2008 47.8469H80.4758C82.8782 47.8469 84.8258 49.7944 84.8258 52.1969V80.4719C84.8258 82.8743 82.8782 84.8219 80.4758 84.8219H52.2008C49.7983 84.8219 47.8508 82.8743 47.8508 80.4719V52.1969ZM52.2008 52.1969H80.4758V80.4719H52.2008V52.1969Z" fill="#151618"/>
</svg>
