<svg width="88" height="88" viewBox="0 0 88 88" fill="none" xmlns="http://www.w3.org/2000/svg">
<path fill-rule="evenodd" clip-rule="evenodd" d="M2.20117 6.61094C2.20117 4.18088 4.17112 2.21094 6.60117 2.21094H35.2012C37.6312 2.21094 39.6012 4.18088 39.6012 6.61094V35.2109C39.6012 37.641 37.6312 39.6109 35.2012 39.6109H6.60117C4.17112 39.6109 2.20117 37.641 2.20117 35.2109V6.61094ZM6.60117 6.61094H35.2012V35.2109H6.60117L6.60117 6.61094Z" fill="#2C2C2C"/>
<path fill-rule="evenodd" clip-rule="evenodd" d="M48.4012 6.61094C48.4012 4.18088 50.3711 2.21094 52.8012 2.21094H81.4012C83.8312 2.21094 85.8012 4.18088 85.8012 6.61094V35.2109C85.8012 37.641 83.8312 39.6109 81.4012 39.6109H52.8012C50.3711 39.6109 48.4012 37.641 48.4012 35.2109V6.61094ZM52.8012 6.61094H81.4012V35.2109H52.8012V6.61094Z" fill="#2C2C2C"/>
<path fill-rule="evenodd" clip-rule="evenodd" d="M6.60117 48.4109C4.17112 48.4109 2.20117 50.3809 2.20117 52.8109V81.4109C2.20117 83.841 4.17112 85.8109 6.60117 85.8109H35.2012C37.6312 85.8109 39.6012 83.841 39.6012 81.4109V52.8109C39.6012 50.3809 37.6312 48.4109 35.2012 48.4109H6.60117ZM35.2012 52.8109H6.60117L6.60117 81.4109H35.2012V52.8109Z" fill="#2C2C2C"/>
<path fill-rule="evenodd" clip-rule="evenodd" d="M48.4012 52.8109C48.4012 50.3809 50.3711 48.4109 52.8012 48.4109H81.4012C83.8312 48.4109 85.8012 50.3809 85.8012 52.8109V81.4109C85.8012 83.841 83.8312 85.8109 81.4012 85.8109H52.8012C50.3711 85.8109 48.4012 83.841 48.4012 81.4109V52.8109ZM52.8012 52.8109H81.4012V81.4109H52.8012V52.8109Z" fill="#2C2C2C"/>
</svg>
