<svg width="88" height="88" viewBox="0 0 88 88" fill="none" xmlns="http://www.w3.org/2000/svg">
<path d="M59.4 44C59.4 52.5052 52.5052 59.4 44 59.4C35.4948 59.4 28.6 52.5052 28.6 44C28.6 35.4948 35.4948 28.6 44 28.6C52.5052 28.6 59.4 35.4948 59.4 44Z" fill="#2C2C2C"/>
<path fill-rule="evenodd" clip-rule="evenodd" d="M73.7 44C73.7 29.8044 63.7407 17.9349 50.4282 14.9975C49.7481 12.0763 47.1282 9.90001 44 9.90001C40.8718 9.90001 38.2519 12.0763 37.5718 14.9975C24.2593 17.9349 14.3 29.8044 14.3 44C14.3 60.4029 27.5971 73.7 44 73.7C60.4029 73.7 73.7 60.4029 73.7 44ZM49.9309 19.399C48.8575 21.5908 46.605 23.1 44 23.1C41.395 23.1 39.1425 21.5908 38.0691 19.399C26.9576 22.0681 18.7 32.0697 18.7 44C18.7 57.9728 30.0272 69.3 44 69.3C57.9728 69.3 69.3 57.9728 69.3 44C69.3 32.0697 61.0424 22.0681 49.9309 19.399Z" fill="#2C2C2C"/>
<path fill-rule="evenodd" clip-rule="evenodd" d="M68.7261 77.706C61.8016 82.7943 53.2518 85.8 44 85.8C20.9145 85.8 2.2 67.0855 2.2 44C2.2 20.9145 20.9145 2.2 44 2.2C67.0855 2.2 85.8 20.9145 85.8 44C85.8 53.2518 82.7942 61.8016 77.706 68.7261C78.2372 69.6772 78.54 70.7732 78.54 71.94C78.54 75.5851 75.5851 78.54 71.94 78.54C70.7732 78.54 69.6772 78.2372 68.7261 77.706ZM6.6 44C6.6 23.3446 23.3445 6.6 44 6.6C64.6555 6.6 81.4 23.3446 81.4 44C81.4 52.1382 78.8006 59.6694 74.3869 65.8085C73.6302 65.5062 72.8045 65.34 71.94 65.34C68.2949 65.34 65.34 68.2949 65.34 71.94C65.34 72.8045 65.5062 73.6302 65.8084 74.3869C59.6694 78.8007 52.1382 81.4 44 81.4C23.3445 81.4 6.6 64.6555 6.6 44Z" fill="#2C2C2C"/>
</svg>
