<svg width="88" height="88" viewBox="0 0 88 88" fill="none" xmlns="http://www.w3.org/2000/svg">
<path d="M65.3988 21.1992L43.9829 44.165L22.578 21.211C20.9207 19.4338 18.1364 19.3366 16.3592 20.9939C14.582 22.6512 14.4847 25.4355 16.142 27.2127L40.7485 53.5999C41.9115 54.8471 43.6294 55.2669 45.1648 54.8338C45.9297 54.6266 46.648 54.2103 47.2283 53.5881L71.8348 27.2009C73.4921 25.4236 73.3948 22.6394 71.6176 20.9821C69.8403 19.3248 67.0561 19.422 65.3988 21.1992Z" fill="#2C2C2C"/>
<path fill-rule="evenodd" clip-rule="evenodd" d="M5.84155 5.54303C6.62293 4.83284 7.66092 4.39999 8.80001 4.39999H79.2C81.6301 4.39999 83.6 6.36994 83.6 8.79999C83.6 9.01205 83.585 9.2206 83.556 9.42465V78.5753C83.585 78.7794 83.6 78.9879 83.6 79.2C83.6 81.6301 81.6301 83.6 79.2 83.6H8.80001C8.49625 83.6 8.19969 83.5692 7.91326 83.5106C5.90825 83.1003 4.40001 81.3263 4.40001 79.2V8.79999C4.40001 7.64453 4.84539 6.59309 5.57385 5.80799C5.65928 5.71592 5.7486 5.62752 5.84155 5.54303ZM13.2 13.2H74.756V61.6H52.756C50.326 61.6 48.356 63.5699 48.356 66C48.356 68.4301 50.326 70.4 52.756 70.4H74.756V74.8H13.2V70.4H35.2C37.6301 70.4 39.6 68.4301 39.6 66C39.6 63.5699 37.6301 61.6 35.2 61.6H13.2V13.2Z" fill="#2C2C2C"/>
</svg>
