<svg width="366" height="366" viewBox="0 0 366 366" fill="none" xmlns="http://www.w3.org/2000/svg">
<mask id="mask0_51_2402" style="mask-type:alpha" maskUnits="userSpaceOnUse" x="0" y="0" width="366" height="366">
<rect width="366" height="366" fill="#D9D9D9"/>
</mask>
<g mask="url(#mask0_51_2402)">
<path d="M99.125 320.25C84.3833 320.25 71.8021 315.04 61.3812 304.619C50.9604 294.198 45.75 281.617 45.75 266.875C45.75 252.133 50.9604 239.552 61.3812 229.131C71.8021 218.71 84.3833 213.5 99.125 213.5H122V152.5H99.125C84.3833 152.5 71.8021 147.29 61.3812 136.869C50.9604 126.448 45.75 113.867 45.75 99.125C45.75 84.3833 50.9604 71.8021 61.3812 61.3812C71.8021 50.9604 84.3833 45.75 99.125 45.75C113.867 45.75 126.448 50.9604 136.869 61.3812C147.29 71.8021 152.5 84.3833 152.5 99.125V122H213.5V99.125C213.5 84.3833 218.71 71.8021 229.131 61.3812C239.552 50.9604 252.133 45.75 266.875 45.75C281.617 45.75 294.198 50.9604 304.619 61.3812C315.04 71.8021 320.25 84.3833 320.25 99.125C320.25 113.867 315.04 126.448 304.619 136.869C294.198 147.29 281.617 152.5 266.875 152.5H244V213.5H266.875C281.617 213.5 294.198 218.71 304.619 229.131C315.04 239.552 320.25 252.133 320.25 266.875C320.25 281.617 315.04 294.198 304.619 304.619C294.198 315.04 281.617 320.25 266.875 320.25C252.133 320.25 239.552 315.04 229.131 304.619C218.71 294.198 213.5 281.617 213.5 266.875V244H152.5V266.875C152.5 281.617 147.29 294.198 136.869 304.619C126.448 315.04 113.867 320.25 99.125 320.25ZM99.125 289.75C105.479 289.75 110.88 287.526 115.328 283.078C119.776 278.63 122 273.229 122 266.875V244H99.125C92.7708 244 87.3698 246.224 82.9219 250.672C78.474 255.12 76.25 260.521 76.25 266.875C76.25 273.229 78.474 278.63 82.9219 283.078C87.3698 287.526 92.7708 289.75 99.125 289.75ZM266.875 289.75C273.229 289.75 278.63 287.526 283.078 283.078C287.526 278.63 289.75 273.229 289.75 266.875C289.75 260.521 287.526 255.12 283.078 250.672C278.63 246.224 273.229 244 266.875 244H244V266.875C244 273.229 246.224 278.63 250.672 283.078C255.12 287.526 260.521 289.75 266.875 289.75ZM152.5 213.5H213.5V152.5H152.5V213.5ZM99.125 122H122V99.125C122 92.7708 119.776 87.3698 115.328 82.9219C110.88 78.474 105.479 76.25 99.125 76.25C92.7708 76.25 87.3698 78.474 82.9219 82.9219C78.474 87.3698 76.25 92.7708 76.25 99.125C76.25 105.479 78.474 110.88 82.9219 115.328C87.3698 119.776 92.7708 122 99.125 122ZM244 122H266.875C273.229 122 278.63 119.776 283.078 115.328C287.526 110.88 289.75 105.479 289.75 99.125C289.75 92.7708 287.526 87.3698 283.078 82.9219C278.63 78.474 273.229 76.25 266.875 76.25C260.521 76.25 255.12 78.474 250.672 82.9219C246.224 87.3698 244 92.7708 244 99.125V122Z" fill="#1C1B1F"/>
</g>
</svg>
