<svg width="46" height="46" viewBox="0 0 46 46" fill="none" xmlns="http://www.w3.org/2000/svg">
<path fill-rule="evenodd" clip-rule="evenodd" d="M1.15 3.45C1.15 2.17975 2.17975 1.15 3.45 1.15H18.4C19.6703 1.15 20.7 2.17975 20.7 3.45V12.65C20.7 13.9203 19.6703 14.95 18.4 14.95H3.45C2.17975 14.95 1.15 13.9203 1.15 12.65V3.45ZM3.45 3.45H18.4V12.65H3.45L3.45 3.45Z" fill="#080807"/>
<path fill-rule="evenodd" clip-rule="evenodd" d="M25.3 3.45C25.3 2.17975 26.3297 1.15 27.6 1.15H42.55C43.8203 1.15 44.85 2.17975 44.85 3.45V24.15C44.85 25.4203 43.8203 26.45 42.55 26.45H27.6C26.3297 26.45 25.3 25.4203 25.3 24.15V3.45ZM27.6 3.45H42.55V24.15H27.6V3.45Z" fill="#080807"/>
<path fill-rule="evenodd" clip-rule="evenodd" d="M3.45 19.55C2.17975 19.55 1.15 20.5797 1.15 21.85V42.55C1.15 43.8203 2.17975 44.85 3.45 44.85H18.4C19.6703 44.85 20.7 43.8203 20.7 42.55V21.85C20.7 20.5797 19.6703 19.55 18.4 19.55H3.45ZM18.4 21.85H3.45L3.45 42.55H18.4V21.85Z" fill="#080807"/>
<path fill-rule="evenodd" clip-rule="evenodd" d="M25.3 33.35C25.3 32.0797 26.3297 31.05 27.6 31.05H42.55C43.8203 31.05 44.85 32.0797 44.85 33.35V42.55C44.85 43.8203 43.8203 44.85 42.55 44.85H27.6C26.3297 44.85 25.3 43.8203 25.3 42.55V33.35ZM27.6 33.35H42.55V42.55H27.6V33.35Z" fill="#080807"/>
</svg>
