<svg width="47" height="47" viewBox="0 0 47 47" fill="none" xmlns="http://www.w3.org/2000/svg">
<path d="M23.5 15.275C21.5532 15.275 19.975 13.6968 19.975 11.75V4.7C19.975 2.7532 21.5532 1.175 23.5 1.175C25.4468 1.175 27.025 2.7532 27.025 4.7V11.75C27.025 13.6968 25.4468 15.275 23.5 15.275Z" fill="#151618"/>
<path d="M30.55 23.5C30.55 27.3936 27.3936 30.55 23.5 30.55C19.6064 30.55 16.45 27.3936 16.45 23.5C16.45 19.6064 19.6064 16.45 23.5 16.45C27.3936 16.45 30.55 19.6064 30.55 23.5Z" fill="#151618"/>
<path d="M31.725 23.5C31.725 21.5532 33.3032 19.975 35.25 19.975H42.3C44.2468 19.975 45.825 21.5532 45.825 23.5C45.825 25.4468 44.2468 27.025 42.3 27.025H35.25C33.3032 27.025 31.725 25.4468 31.725 23.5Z" fill="#151618"/>
<path d="M4.7 19.975C2.7532 19.975 1.175 21.5532 1.175 23.5C1.175 25.4468 2.7532 27.025 4.7 27.025H11.75C13.6968 27.025 15.275 25.4468 15.275 23.5C15.275 21.5532 13.6968 19.975 11.75 19.975H4.7Z" fill="#151618"/>
<path d="M19.975 42.3C19.975 44.2468 21.5532 45.825 23.5 45.825C25.4468 45.825 27.025 44.2468 27.025 42.3V35.25C27.025 33.3032 25.4468 31.725 23.5 31.725C21.5532 31.725 19.975 33.3032 19.975 35.25V42.3Z" fill="#151618"/>
<path d="M31.808 15.1944C31.1197 14.5061 31.1197 13.3902 31.808 12.7019L37.624 6.88594C38.3123 6.19764 39.4282 6.19764 40.1165 6.88594C40.8048 7.57424 40.8048 8.69019 40.1165 9.37849L34.3006 15.1944C33.6123 15.8827 32.4963 15.8827 31.808 15.1944Z" fill="#151618"/>
<path d="M6.88628 37.6123C6.19798 38.3006 6.19798 39.4165 6.88628 40.1048C7.57458 40.7931 8.69053 40.7931 9.37883 40.1048L15.1948 34.2889C15.8831 33.6006 15.8831 32.4846 15.1948 31.7963C14.5065 31.108 13.3905 31.108 12.7022 31.7963L6.88628 37.6123Z" fill="#151618"/>
<path d="M6.8862 6.88591C7.57449 6.19761 8.69045 6.19761 9.37875 6.88591L15.1947 12.7019C15.883 13.3902 15.883 14.5061 15.1947 15.1944C14.5064 15.8827 13.3904 15.8827 12.7021 15.1944L6.8862 9.37846C6.1979 8.69016 6.1979 7.57421 6.8862 6.88591Z" fill="#151618"/>
<path d="M34.2887 31.7963C33.6004 31.108 32.4845 31.108 31.7962 31.7963C31.1079 32.4846 31.1079 33.6005 31.7962 34.2888L37.6121 40.1048C38.3004 40.7931 39.4164 40.7931 40.1047 40.1048C40.793 39.4165 40.793 38.3005 40.1047 37.6122L34.2887 31.7963Z" fill="#151618"/>
</svg>
