<svg width="52" height="52" viewBox="0 0 52 52" fill="none" xmlns="http://www.w3.org/2000/svg">
<path fill-rule="evenodd" clip-rule="evenodd" d="M36.4 44.9591C34.1043 43.9561 32.5 41.6654 32.5 39C32.5 36.3346 34.1043 34.0439 36.4 33.0409V5.2C36.4 3.76406 37.5641 2.6 39 2.6C40.4359 2.6 41.6 3.76406 41.6 5.2V33.0409C43.8957 34.0439 45.5 36.3346 45.5 39C45.5 41.6654 43.8957 43.9561 41.6 44.9591V46.8C41.6 48.2359 40.4359 49.4 39 49.4C37.5641 49.4 36.4 48.2359 36.4 46.8V44.9591ZM39 41.6C37.5641 41.6 36.4 40.4359 36.4 39C36.4 37.5641 37.5641 36.4 39 36.4C40.4359 36.4 41.6 37.5641 41.6 39C41.6 40.4359 40.4359 41.6 39 41.6Z" fill="#151618"/>
<path fill-rule="evenodd" clip-rule="evenodd" d="M23.4 18.9591C21.1043 17.9561 19.5 15.6654 19.5 13C19.5 10.3346 21.1043 8.04388 23.4 7.04086V5.2C23.4 3.76406 24.5641 2.6 26 2.6C27.4359 2.6 28.6 3.76406 28.6 5.2V7.04086C30.8957 8.04388 32.5 10.3346 32.5 13C32.5 15.6654 30.8957 17.9561 28.6 18.9591V46.8C28.6 48.2359 27.4359 49.4 26 49.4C24.5641 49.4 23.4 48.2359 23.4 46.8V18.9591ZM23.4 13C23.4 14.4359 24.5641 15.6 26 15.6C27.4359 15.6 28.6 14.4359 28.6 13C28.6 11.5641 27.4359 10.4 26 10.4C24.5641 10.4 23.4 11.5641 23.4 13Z" fill="#151618"/>
<path fill-rule="evenodd" clip-rule="evenodd" d="M6.5 28.6C6.5 31.2654 8.10432 33.5561 10.4 34.5591V46.8C10.4 48.2359 11.5641 49.4 13 49.4C14.4359 49.4 15.6 48.2359 15.6 46.8V34.5591C17.8957 33.5561 19.5 31.2654 19.5 28.6C19.5 25.9346 17.8957 23.6439 15.6 22.6409V5.2C15.6 3.76406 14.4359 2.6 13 2.6C11.5641 2.6 10.4 3.76406 10.4 5.2V22.6409C8.10432 23.6439 6.5 25.9346 6.5 28.6ZM13 31.2C11.5641 31.2 10.4 30.0359 10.4 28.6C10.4 27.1641 11.5641 26 13 26C14.4359 26 15.6 27.1641 15.6 28.6C15.6 30.0359 14.4359 31.2 13 31.2Z" fill="#151618"/>
</svg>
