<svg width="69" height="69" viewBox="0 0 69 69" fill="none" xmlns="http://www.w3.org/2000/svg">
<path fill-rule="evenodd" clip-rule="evenodd" d="M6.9 3.45C4.99462 3.45 3.45 4.99461 3.45 6.9V17.25C3.45 19.1554 4.99462 20.7 6.9 20.7H10.35V48.3H6.9C4.99462 48.3 3.45 49.8446 3.45 51.75V62.1C3.45 64.0054 4.99462 65.55 6.9 65.55H17.25C19.1554 65.55 20.7 64.0054 20.7 62.1V58.65H48.3V62.1C48.3 64.0054 49.8446 65.55 51.75 65.55H62.1C64.0054 65.55 65.55 64.0054 65.55 62.1V51.75C65.55 49.8446 64.0054 48.3 62.1 48.3H58.65V20.7H62.1C64.0054 20.7 65.55 19.1554 65.55 17.25V6.9C65.55 4.99461 64.0054 3.45 62.1 3.45H51.75C49.8446 3.45 48.3 4.99461 48.3 6.9V10.35H20.7V6.9C20.7 4.99461 19.1554 3.45 17.25 3.45H6.9ZM20.7 15.525V17.25C20.7 19.1554 19.1554 20.7 17.25 20.7H15.525V48.3H17.25C19.1554 48.3 20.7 49.8446 20.7 51.75V53.475H48.3V51.75C48.3 49.8446 49.8446 48.3 51.75 48.3H53.475V20.7H51.75C49.8446 20.7 48.3 19.1554 48.3 17.25V15.525H20.7ZM15.525 8.625H8.625V15.525H15.525V8.625ZM53.475 8.625V15.525H60.375V8.625H53.475ZM53.475 53.475V60.375H60.375V53.475H53.475ZM8.625 53.475V60.375H15.525V53.475H8.625Z" fill="black"/>
</svg>
