<svg width="20" height="20" viewBox="0 0 20 20" fill="none" xmlns="http://www.w3.org/2000/svg">
<path fill-rule="evenodd" clip-rule="evenodd" d="M6.90134 12.9752C7.17774 13.6425 7.32 14.3577 7.32 15.08V16.6722L12.63 15.2494V15.13C12.63 14.4077 12.7723 13.6925 13.0487 13.0252C13.3251 12.358 13.7302 11.7516 14.2409 11.2409L14.2426 11.2426C15.0818 10.4035 15.6532 9.33443 15.8847 8.17054C16.1162 7.00666 15.9974 5.80026 15.5433 4.7039C15.0892 3.60754 14.3201 2.67047 13.3334 2.01118C12.3467 1.35189 11.1867 1 10 1C8.81332 1 7.65328 1.35189 6.66658 2.01118C5.67989 2.67047 4.91085 3.60754 4.45673 4.7039C4.0026 5.80026 3.88378 7.00666 4.11529 8.17054C4.3468 9.33443 4.91825 10.4035 5.75736 11.2426L5.75877 11.2412C6.24612 11.7413 6.63396 12.3297 6.90134 12.9752ZM10 2.5C9.10999 2.5 8.23996 2.76392 7.49994 3.25839C6.75992 3.75285 6.18314 4.45566 5.84254 5.27792C5.50195 6.10019 5.41284 7.00499 5.58647 7.87791C5.7555 8.72769 6.16615 9.5101 6.76841 10.1316L6.76975 10.1303C7.41976 10.7803 7.93537 11.5519 8.28716 12.4012C8.47423 12.8528 8.61302 13.3217 8.70198 13.8H11.2575C11.3467 13.339 11.4823 12.8871 11.6628 12.4512C12.0146 11.6019 12.5302 10.8303 13.1803 10.1803L13.182 10.182C13.8113 9.55264 14.2399 8.75082 14.4135 7.87791C14.5872 7.00499 14.4981 6.10019 14.1575 5.27792C13.8169 4.45566 13.2401 3.75285 12.5001 3.25839C11.76 2.76392 10.89 2.5 10 2.5Z" fill="black"/>
<path d="M12.63 15.767L7.32 17.1898V18C7.32 18.0074 7.32008 18.0148 7.32024 18.0221L12.63 16.5994V15.767Z" fill="black"/>
<path d="M12.63 17.117L7.45578 18.5034C7.62916 18.8004 7.95128 19 8.32 19H11.63C12.1823 19 12.63 18.5523 12.63 18V17.117Z" fill="black"/>
</svg>
