<svg width="406" height="406" viewBox="0 0 406 406" fill="none" xmlns="http://www.w3.org/2000/svg">
<mask id="mask0_51_2384" style="mask-type:alpha" maskUnits="userSpaceOnUse" x="0" y="0" width="406" height="406">
<rect width="406" height="406" fill="#D9D9D9"/>
</mask>
<g mask="url(#mask0_51_2384)">
<path d="M108.267 321.417H297.31L261.785 285.892C253.609 291.812 244.516 296.394 234.507 299.636C224.498 302.879 213.996 304.5 203 304.5C192.004 304.5 181.502 302.808 171.493 299.425C161.484 296.042 152.391 291.39 144.215 285.469L108.267 321.417ZM84.5833 297.31L120.108 261.785C114.187 253.609 109.606 244.516 106.364 234.507C103.121 224.498 101.5 213.996 101.5 203C101.5 192.004 103.192 181.502 106.575 171.493C109.958 161.484 114.61 152.391 120.531 144.215L84.5833 108.267V297.31ZM144.637 237.256L179.317 203L144.637 168.744C141.536 173.819 139.21 179.176 137.659 184.815C136.109 190.453 135.333 196.515 135.333 203C135.333 209.485 136.109 215.547 137.659 221.185C139.21 226.824 141.536 232.181 144.637 237.256ZM203 270.667C209.485 270.667 215.547 269.891 221.185 268.341C226.824 266.79 232.181 264.464 237.256 261.362L203 226.683L168.321 261.362C173.396 264.464 178.823 266.79 184.603 268.341C190.383 269.891 196.515 270.667 203 270.667ZM203 178.894L237.256 144.637C232.181 141.536 226.824 139.21 221.185 137.659C215.547 136.109 209.485 135.333 203 135.333C196.515 135.333 190.453 136.109 184.815 137.659C179.176 139.21 173.819 141.536 168.744 144.637L203 178.894ZM261.362 237.256C264.464 232.181 266.79 226.824 268.341 221.185C269.891 215.547 270.667 209.485 270.667 203C270.667 196.515 269.891 190.383 268.341 184.603C266.79 178.823 264.464 173.396 261.362 168.321L227.106 202.577L261.362 237.256ZM321.417 297.31V108.267L285.469 144.215C291.39 152.391 296.042 161.484 299.425 171.493C302.808 181.502 304.5 192.004 304.5 203C304.5 213.996 302.879 224.498 299.636 234.507C296.394 244.516 291.812 253.609 285.892 261.785L321.417 297.31ZM261.785 120.531L297.733 84.5833H108.69L144.215 120.108C152.391 114.187 161.484 109.606 171.493 106.364C181.502 103.121 192.004 101.5 203 101.5C213.996 101.5 224.498 103.192 234.507 106.575C244.516 109.958 253.609 114.61 261.785 120.531ZM84.5833 355.25C75.2792 355.25 67.3142 351.937 60.6885 345.311C54.0628 338.686 50.75 330.721 50.75 321.417V84.5833C50.75 75.2792 54.0628 67.3142 60.6885 60.6885C67.3142 54.0628 75.2792 50.75 84.5833 50.75H321.417C330.721 50.75 338.686 54.0628 345.311 60.6885C351.937 67.3142 355.25 75.2792 355.25 84.5833V321.417C355.25 330.721 351.937 338.686 345.311 345.311C338.686 351.937 330.721 355.25 321.417 355.25H84.5833Z" fill="#1C1B1F"/>
</g>
</svg>
