<svg width="50" height="50" viewBox="0 0 50 50" fill="none" xmlns="http://www.w3.org/2000/svg">
<path d="M37.1584 12.045L24.9903 25.0937L12.8284 12.0517C11.8868 11.0419 10.3048 10.9867 9.295 11.9284C8.28521 12.87 8.22994 14.452 9.17159 15.4618L23.1526 30.4545C23.8133 31.1631 24.7894 31.4016 25.6618 31.1555C26.0964 31.0378 26.5046 30.8013 26.8342 30.4478L40.8152 15.455C41.7568 14.4452 41.7016 12.8633 40.6918 11.9216C39.682 10.98 38.1 11.0352 37.1584 12.045Z" fill="#151618"/>
<path fill-rule="evenodd" clip-rule="evenodd" d="M3.31906 3.14945C3.76302 2.74594 4.35279 2.5 5 2.5H45C46.3807 2.5 47.5 3.61929 47.5 5C47.5 5.12049 47.4915 5.23898 47.475 5.35492V44.6451C47.4915 44.761 47.5 44.8795 47.5 45C47.5 46.3807 46.3807 47.5 45 47.5H5C4.82741 47.5 4.65891 47.4825 4.49616 47.4492C3.35696 47.2161 2.5 46.2081 2.5 45V5C2.5 4.34349 2.75306 3.74608 3.16696 3.3C3.21549 3.24769 3.26624 3.19746 3.31906 3.14945ZM7.5 7.5H42.475V35H29.975C28.5943 35 27.475 36.1193 27.475 37.5C27.475 38.8807 28.5943 40 29.975 40H42.475V42.5H7.5V40H20C21.3807 40 22.5 38.8807 22.5 37.5C22.5 36.1193 21.3807 35 20 35H7.5V7.5Z" fill="#151618"/>
</svg>
