<svg width="36" height="36" viewBox="0 0 36 36" fill="none" xmlns="http://www.w3.org/2000/svg">
<path d="M9.9 11.7C9.40294 11.7 9 12.103 9 12.6C9 13.0971 9.40294 13.5 9.9 13.5H26.1C26.5971 13.5 27 13.0971 27 12.6C27 12.103 26.5971 11.7 26.1 11.7H9.9Z" fill="#5C4D7C"/>
<path d="M9 18C9 17.5029 9.40294 17.1 9.9 17.1H18.9C19.3971 17.1 19.8 17.5029 19.8 18C19.8 18.4971 19.3971 18.9 18.9 18.9H9.9C9.40294 18.9 9 18.4971 9 18Z" fill="#5C4D7C"/>
<path d="M9.9 22.5C9.40294 22.5 9 22.9029 9 23.4C9 23.8971 9.40294 24.3 9.9 24.3H22.5C22.9971 24.3 23.4 23.8971 23.4 23.4C23.4 22.9029 22.9971 22.5 22.5 22.5H9.9Z" fill="#5C4D7C"/>
<path fill-rule="evenodd" clip-rule="evenodd" d="M0 14.4C0 8.43533 4.83533 3.60001 10.8 3.60001H25.2C31.1647 3.60001 36 8.43533 36 14.4V21.6C36 27.5647 31.1647 32.4 25.2 32.4H1.8C0.805888 32.4 0 31.5941 0 30.6V14.4ZM10.8 5.40001H25.2C30.1706 5.40001 34.2 9.42944 34.2 14.4V21.6C34.2 26.5706 30.1706 30.6 25.2 30.6H1.8L1.8 14.4C1.8 9.42944 5.82944 5.40001 10.8 5.40001Z" fill="#5C4D7C"/>
</svg>
