<svg width="53" height="53" viewBox="0 0 53 53" fill="none" xmlns="http://www.w3.org/2000/svg">
<path fill-rule="evenodd" clip-rule="evenodd" d="M5.3 2.65C3.83645 2.65 2.65 3.83644 2.65 5.3V13.25C2.65 14.7136 3.83645 15.9 5.3 15.9H7.95V37.1H5.3C3.83645 37.1 2.65 38.2864 2.65 39.75V47.7C2.65 49.1636 3.83645 50.35 5.3 50.35H13.25C14.7136 50.35 15.9 49.1636 15.9 47.7V45.05H37.1V47.7C37.1 49.1636 38.2864 50.35 39.75 50.35H47.7C49.1636 50.35 50.35 49.1636 50.35 47.7V39.75C50.35 38.2864 49.1636 37.1 47.7 37.1H45.05V15.9H47.7C49.1636 15.9 50.35 14.7136 50.35 13.25V5.3C50.35 3.83644 49.1636 2.65 47.7 2.65H39.75C38.2864 2.65 37.1 3.83644 37.1 5.3V7.95H15.9V5.3C15.9 3.83644 14.7136 2.65 13.25 2.65H5.3ZM15.9 11.925V13.25C15.9 14.7136 14.7136 15.9 13.25 15.9H11.925V37.1H13.25C14.7136 37.1 15.9 38.2864 15.9 39.75V41.075H37.1V39.75C37.1 38.2864 38.2864 37.1 39.75 37.1H41.075V15.9H39.75C38.2864 15.9 37.1 14.7136 37.1 13.25V11.925H15.9ZM11.925 6.625H6.625V11.925H11.925V6.625ZM41.075 6.625V11.925H46.375V6.625H41.075ZM41.075 41.075V46.375H46.375V41.075H41.075ZM6.625 41.075V46.375H11.925V41.075H6.625Z" fill="black"/>
</svg>
