<svg width="33" height="33" viewBox="0 0 33 33" fill="none" xmlns="http://www.w3.org/2000/svg">
<path d="M16.25 32.5C14.0292 32.5 11.9302 32.0734 9.95312 31.2203C7.97604 30.3672 6.24948 29.2026 4.77344 27.7266C3.2974 26.2505 2.13281 24.524 1.27969 22.5469C0.426562 20.5698 0 18.4708 0 16.25C0 14.0021 0.440104 11.8896 1.32031 9.9125C2.20052 7.93542 3.39219 6.21562 4.89531 4.75312C6.39844 3.29062 8.15208 2.13281 10.1562 1.27969C12.1604 0.426562 14.3 0 16.575 0C18.7417 0 20.7865 0.372396 22.7094 1.11719C24.6323 1.86198 26.3182 2.89115 27.7672 4.20469C29.2161 5.51823 30.3672 7.07552 31.2203 8.87656C32.0734 10.6776 32.5 12.6208 32.5 14.7063C32.5 17.8208 31.5521 20.2109 29.6562 21.8766C27.7604 23.5422 25.4583 24.375 22.75 24.375H19.7438C19.5 24.375 19.3307 24.4427 19.2359 24.5781C19.1411 24.7135 19.0938 24.8625 19.0938 25.025C19.0938 25.35 19.2969 25.8172 19.7031 26.4266C20.1094 27.0359 20.3125 27.7333 20.3125 28.5188C20.3125 29.8729 19.9401 30.875 19.1953 31.525C18.4505 32.175 17.4688 32.5 16.25 32.5ZM7.3125 17.875C8.01667 17.875 8.59896 17.6448 9.05938 17.1844C9.51979 16.724 9.75 16.1417 9.75 15.4375C9.75 14.7333 9.51979 14.151 9.05938 13.6906C8.59896 13.2302 8.01667 13 7.3125 13C6.60833 13 6.02604 13.2302 5.56562 13.6906C5.10521 14.151 4.875 14.7333 4.875 15.4375C4.875 16.1417 5.10521 16.724 5.56562 17.1844C6.02604 17.6448 6.60833 17.875 7.3125 17.875ZM12.1875 11.375C12.8917 11.375 13.474 11.1448 13.9344 10.6844C14.3948 10.224 14.625 9.64167 14.625 8.9375C14.625 8.23333 14.3948 7.65104 13.9344 7.19063C13.474 6.73021 12.8917 6.5 12.1875 6.5C11.4833 6.5 10.901 6.73021 10.4406 7.19063C9.98021 7.65104 9.75 8.23333 9.75 8.9375C9.75 9.64167 9.98021 10.224 10.4406 10.6844C10.901 11.1448 11.4833 11.375 12.1875 11.375ZM20.3125 11.375C21.0167 11.375 21.599 11.1448 22.0594 10.6844C22.5198 10.224 22.75 9.64167 22.75 8.9375C22.75 8.23333 22.5198 7.65104 22.0594 7.19063C21.599 6.73021 21.0167 6.5 20.3125 6.5C19.6083 6.5 19.026 6.73021 18.5656 7.19063C18.1052 7.65104 17.875 8.23333 17.875 8.9375C17.875 9.64167 18.1052 10.224 18.5656 10.6844C19.026 11.1448 19.6083 11.375 20.3125 11.375ZM25.1875 17.875C25.8917 17.875 26.474 17.6448 26.9344 17.1844C27.3948 16.724 27.625 16.1417 27.625 15.4375C27.625 14.7333 27.3948 14.151 26.9344 13.6906C26.474 13.2302 25.8917 13 25.1875 13C24.4833 13 23.901 13.2302 23.4406 13.6906C22.9802 14.151 22.75 14.7333 22.75 15.4375C22.75 16.1417 22.9802 16.724 23.4406 17.1844C23.901 17.6448 24.4833 17.875 25.1875 17.875ZM16.25 29.25C16.4937 29.25 16.6901 29.1823 16.8391 29.0469C16.988 28.9115 17.0625 28.7354 17.0625 28.5188C17.0625 28.1396 16.8594 27.6927 16.4531 27.1781C16.0469 26.6635 15.8438 25.8917 15.8438 24.8625C15.8438 23.725 16.2365 22.8177 17.0219 22.1406C17.8073 21.4635 18.7687 21.125 19.9062 21.125H22.75C24.5375 21.125 26.0677 20.6036 27.3406 19.5609C28.6135 18.5182 29.25 16.9 29.25 14.7063C29.25 11.4292 27.9974 8.70052 25.4922 6.52031C22.987 4.3401 20.0146 3.25 16.575 3.25C12.8917 3.25 9.75 4.50938 7.15 7.02813C4.55 9.54688 3.25 12.6208 3.25 16.25C3.25 19.8521 4.51615 22.9193 7.04844 25.4516C9.58073 27.9839 12.6479 29.25 16.25 29.25Z" fill="#151618"/>
</svg>
