<svg width="41" height="41" viewBox="0 0 41 41" fill="none" xmlns="http://www.w3.org/2000/svg">
<path d="M28.7001 22.5498C29.1109 22.5498 29.5159 22.5256 29.914 22.4787L22.2837 35.6949C21.7176 36.6754 22.0535 37.9292 23.034 38.4952C24.0145 39.0613 25.2683 38.7254 25.8343 37.7449L37.1092 18.2162C37.1482 18.1487 37.183 18.0798 37.2135 18.0099C38.3101 16.3781 38.95 14.4137 38.95 12.2999C38.95 6.63903 34.361 2.05 28.7001 2.05C26.6112 2.05 24.6683 2.67488 23.048 3.74788C22.9599 3.78348 22.8732 3.8256 22.7885 3.87448L3.25983 15.1494C2.27932 15.7154 1.9434 16.9692 2.50951 17.9497C3.07557 18.9302 4.3293 19.2661 5.30981 18.7L18.5231 11.0714C18.4749 11.4741 18.4502 11.8841 18.4502 12.2999C18.4502 14.3913 19.0766 16.3364 20.152 17.9579L7.68187 30.428C6.88129 31.2286 6.88129 32.5265 7.68187 33.3271C8.48244 34.1277 9.78041 34.1277 10.581 33.3271L23.0529 20.8552C24.6722 21.9262 26.6133 22.5498 28.7001 22.5498Z" fill="black"/>
</svg>
