<svg width="120" height="120" viewBox="0 0 120 120" fill="none" xmlns="http://www.w3.org/2000/svg">
<path d="M9 66V81C9 87.6274 14.3726 93 21 93V87C17.6863 87 15 84.3137 15 81V66H9Z" fill="#151618"/>
<path d="M81 9C87.6274 9 93 14.3726 93 21H87C87 17.6863 84.3137 15 81 15H66V9H81Z" fill="#151618"/>
<path d="M9 36H15V21C15 17.6863 17.6863 15 21 15H36V9H21C14.3726 9 9 14.3726 9 21V36Z" fill="#151618"/>
<path d="M30 27C28.3431 27 27 28.3431 27 30V99C27 105.627 32.3726 111 39 111H99C105.627 111 111 105.627 111 99V39C111 32.3726 105.627 27 99 27H30Z" fill="#151618"/>
</svg>
