<svg width="64" height="79" viewBox="0 0 64 79" fill="none" xmlns="http://www.w3.org/2000/svg">
<path fill-rule="evenodd" clip-rule="evenodd" d="M31.1979 1.557C29.9659 2.419 28.9749 4.168 28.9749 5.479C28.9749 7.29 28.1649 8.112 25.5239 8.984C23.6259 9.61 20.4539 11.222 18.4739 12.565C15.6079 14.51 14.1009 14.884 11.0789 14.401C7.76493 13.871 7.00893 14.141 5.12893 16.532C2.79393 19.499 2.33793 22.963 4.05493 24.68C4.82893 25.454 4.68693 27.081 3.55493 30.415C2.68593 32.975 1.97493 35.729 1.97493 36.535C1.97493 37.341 1.52493 38 0.974933 38C-0.544067 38 -0.220067 40.594 1.47493 42C2.29993 42.685 3.02693 44.202 3.09093 45.372C3.20093 47.392 3.23193 47.399 3.69393 45.5C3.96193 44.4 4.88393 42.708 5.74193 41.74C7.03593 40.281 7.08993 39.583 6.05693 37.654C4.36593 34.494 6.91893 28 9.85093 28C12.4799 28 16.1429 23.212 15.7709 20.261C15.5219 18.278 16.5739 17.295 22.4669 14.007L29.4579 10.105L31.6739 12.187C33.4499 13.856 33.9479 15.581 34.1819 20.884C34.3569 24.829 34.8739 27.298 35.4639 27C36.0079 26.725 36.3039 23.907 36.1209 20.738C35.8129 15.389 36.0119 14.768 38.8819 12.087C40.5829 10.498 41.9749 9.565 41.9749 10.013C41.9749 11.047 50.7649 16 52.6009 16C56.4579 16 51.2379 10.902 45.4119 8.979C43.0959 8.215 41.7739 7.046 41.3599 5.399C40.6929 2.74 37.4529 0 34.9749 0C34.1199 0 32.4199 0.701 31.1979 1.557ZM51.9749 49.155C51.9749 72.067 52.0649 73.232 53.7249 71.804C54.6879 70.975 57.3869 69.247 59.7249 67.964L63.9749 65.632V45.316V25H57.9749H51.9749V49.155ZM35.9749 58.107C35.9749 74.591 36.2489 79.105 37.2249 78.717C37.9129 78.443 40.3879 77.446 42.7249 76.501L46.9749 74.783V55.891V37H41.4749H35.9749V58.107ZM19.9789 60.25L19.9819 73.5L24.6949 75.5C27.2869 76.6 29.7609 77.65 30.1919 77.833C30.6219 78.017 30.9749 71.432 30.9749 63.2C30.9749 46.481 31.2459 47.047 23.2249 47.014L19.9749 47L19.9789 60.25ZM1.97493 58.883V63.766L8.04693 67.383C11.3859 69.372 14.3109 71 14.5469 71C14.7819 71 14.9749 67.175 14.9749 62.5V54H8.47493H1.97493V58.883Z" fill="black"/>
</svg>
