<svg width="34" height="34" viewBox="0 0 34 34" fill="none" xmlns="http://www.w3.org/2000/svg">
<path d="M22.95 17C22.95 20.2861 20.2861 22.95 17 22.95C13.7139 22.95 11.05 20.2861 11.05 17C11.05 13.7139 13.7139 11.05 17 11.05C20.2861 11.05 22.95 13.7139 22.95 17Z" fill="black"/>
<path fill-rule="evenodd" clip-rule="evenodd" d="M28.475 17C28.475 11.5153 24.6271 6.9294 19.4836 5.79449C19.2209 4.66586 18.2086 3.825 17 3.825C15.7914 3.825 14.7791 4.66586 14.5164 5.79449C9.37289 6.9294 5.525 11.5153 5.525 17C5.525 23.3375 10.6625 28.475 17 28.475C23.3375 28.475 28.475 23.3375 28.475 17ZM19.2915 7.49507C18.8768 8.34189 18.0065 8.925 17 8.925C15.9935 8.925 15.1232 8.34189 14.7085 7.49507C10.4155 8.52632 7.225 12.3906 7.225 17C7.225 22.3986 11.6014 26.775 17 26.775C22.3986 26.775 26.775 22.3986 26.775 17C26.775 12.3906 23.5845 8.52632 19.2915 7.49507Z" fill="black"/>
<path fill-rule="evenodd" clip-rule="evenodd" d="M26.5533 30.0228C23.8779 31.9887 20.5746 33.15 17 33.15C8.0806 33.15 0.85 25.9194 0.85 17C0.85 8.0806 8.0806 0.85 17 0.85C25.9194 0.85 33.15 8.0806 33.15 17C33.15 20.5746 31.9887 23.8779 30.0228 26.5533C30.228 26.9207 30.345 27.3442 30.345 27.795C30.345 29.2033 29.2033 30.345 27.795 30.345C27.3442 30.345 26.9207 30.228 26.5533 30.0228ZM2.55 17C2.55 9.01949 9.01949 2.55 17 2.55C24.9805 2.55 31.45 9.01949 31.45 17C31.45 20.1443 30.4457 23.0541 28.7404 25.426C28.448 25.3092 28.129 25.245 27.795 25.245C26.3867 25.245 25.245 26.3867 25.245 27.795C25.245 28.129 25.3092 28.448 25.426 28.7404C23.0541 30.4457 20.1443 31.45 17 31.45C9.01949 31.45 2.55 24.9805 2.55 17Z" fill="black"/>
</svg>
